%TF.GenerationSoftware,KiCad,Pcbnew,5.1.9-73d0e3b20d~88~ubuntu20.04.1*%
%TF.CreationDate,2021-04-06T18:29:42+02:00*%
%TF.ProjectId,AB_LED_PCB,41425f4c-4544-45f5-9043-422e6b696361,rev?*%
%TF.SameCoordinates,Original*%
%TF.FileFunction,Copper,L1,Top*%
%TF.FilePolarity,Positive*%
%FSLAX46Y46*%
G04 Gerber Fmt 4.6, Leading zero omitted, Abs format (unit mm)*
G04 Created by KiCad (PCBNEW 5.1.9-73d0e3b20d~88~ubuntu20.04.1) date 2021-04-06 18:29:42*
%MOMM*%
%LPD*%
G01*
G04 APERTURE LIST*
%TA.AperFunction,ComponentPad*%
%ADD10O,1.700000X1.700000*%
%TD*%
%TA.AperFunction,ComponentPad*%
%ADD11R,1.700000X1.700000*%
%TD*%
%TA.AperFunction,SMDPad,CuDef*%
%ADD12R,0.700000X0.700000*%
%TD*%
%TA.AperFunction,ViaPad*%
%ADD13C,0.600000*%
%TD*%
%TA.AperFunction,Conductor*%
%ADD14C,0.250000*%
%TD*%
%TA.AperFunction,Conductor*%
%ADD15C,0.150000*%
%TD*%
%TA.AperFunction,Conductor*%
%ADD16C,0.200000*%
%TD*%
%TA.AperFunction,Conductor*%
%ADD17C,0.100000*%
%TD*%
G04 APERTURE END LIST*
D10*
%TO.P,J1,3*%
%TO.N,GND*%
X151765000Y-102997000D03*
%TO.P,J1,2*%
%TO.N,Net-(D5-Pad3)*%
X154305000Y-102997000D03*
D11*
%TO.P,J1,1*%
%TO.N,+5V*%
X156845000Y-102997000D03*
%TD*%
D12*
%TO.P,D7,1*%
%TO.N,Net-(D1-Pad3)*%
X170587000Y-101007000D03*
%TO.P,D7,2*%
%TO.N,GND*%
X170587000Y-99907000D03*
%TO.P,D7,4*%
%TO.N,+5V*%
X168757000Y-101007000D03*
%TO.P,D7,3*%
%TO.N,Net-(D6-Pad1)*%
X168757000Y-99907000D03*
%TD*%
%TO.P,C7,2*%
%TO.N,GND*%
%TA.AperFunction,SMDPad,CuDef*%
G36*
G01*
X167059000Y-100795000D02*
X167059000Y-101135000D01*
G75*
G02*
X166919000Y-101275000I-140000J0D01*
G01*
X166639000Y-101275000D01*
G75*
G02*
X166499000Y-101135000I0J140000D01*
G01*
X166499000Y-100795000D01*
G75*
G02*
X166639000Y-100655000I140000J0D01*
G01*
X166919000Y-100655000D01*
G75*
G02*
X167059000Y-100795000I0J-140000D01*
G01*
G37*
%TD.AperFunction*%
%TO.P,C7,1*%
%TO.N,+5V*%
%TA.AperFunction,SMDPad,CuDef*%
G36*
G01*
X168019000Y-100795000D02*
X168019000Y-101135000D01*
G75*
G02*
X167879000Y-101275000I-140000J0D01*
G01*
X167599000Y-101275000D01*
G75*
G02*
X167459000Y-101135000I0J140000D01*
G01*
X167459000Y-100795000D01*
G75*
G02*
X167599000Y-100655000I140000J0D01*
G01*
X167879000Y-100655000D01*
G75*
G02*
X168019000Y-100795000I0J-140000D01*
G01*
G37*
%TD.AperFunction*%
%TD*%
%TO.P,D6,1*%
%TO.N,Net-(D6-Pad1)*%
X161570000Y-109770000D03*
%TO.P,D6,2*%
%TO.N,GND*%
X161570000Y-108670000D03*
%TO.P,D6,4*%
%TO.N,+5V*%
X159740000Y-109770000D03*
%TO.P,D6,3*%
%TO.N,Net-(D5-Pad1)*%
X159740000Y-108670000D03*
%TD*%
%TO.P,D5,1*%
%TO.N,Net-(D5-Pad1)*%
X160502000Y-106003000D03*
%TO.P,D5,2*%
%TO.N,GND*%
X160502000Y-107103000D03*
%TO.P,D5,4*%
%TO.N,+5V*%
X162332000Y-106003000D03*
%TO.P,D5,3*%
%TO.N,Net-(D5-Pad3)*%
X162332000Y-107103000D03*
%TD*%
%TO.P,C6,2*%
%TO.N,GND*%
%TA.AperFunction,SMDPad,CuDef*%
G36*
G01*
X161471000Y-103335000D02*
X161471000Y-103675000D01*
G75*
G02*
X161331000Y-103815000I-140000J0D01*
G01*
X161051000Y-103815000D01*
G75*
G02*
X160911000Y-103675000I0J140000D01*
G01*
X160911000Y-103335000D01*
G75*
G02*
X161051000Y-103195000I140000J0D01*
G01*
X161331000Y-103195000D01*
G75*
G02*
X161471000Y-103335000I0J-140000D01*
G01*
G37*
%TD.AperFunction*%
%TO.P,C6,1*%
%TO.N,+5V*%
%TA.AperFunction,SMDPad,CuDef*%
G36*
G01*
X162431000Y-103335000D02*
X162431000Y-103675000D01*
G75*
G02*
X162291000Y-103815000I-140000J0D01*
G01*
X162011000Y-103815000D01*
G75*
G02*
X161871000Y-103675000I0J140000D01*
G01*
X161871000Y-103335000D01*
G75*
G02*
X162011000Y-103195000I140000J0D01*
G01*
X162291000Y-103195000D01*
G75*
G02*
X162431000Y-103335000I0J-140000D01*
G01*
G37*
%TD.AperFunction*%
%TD*%
%TO.P,C5,2*%
%TO.N,GND*%
%TA.AperFunction,SMDPad,CuDef*%
G36*
G01*
X160728000Y-111168000D02*
X160728000Y-110828000D01*
G75*
G02*
X160868000Y-110688000I140000J0D01*
G01*
X161148000Y-110688000D01*
G75*
G02*
X161288000Y-110828000I0J-140000D01*
G01*
X161288000Y-111168000D01*
G75*
G02*
X161148000Y-111308000I-140000J0D01*
G01*
X160868000Y-111308000D01*
G75*
G02*
X160728000Y-111168000I0J140000D01*
G01*
G37*
%TD.AperFunction*%
%TO.P,C5,1*%
%TO.N,+5V*%
%TA.AperFunction,SMDPad,CuDef*%
G36*
G01*
X159768000Y-111168000D02*
X159768000Y-110828000D01*
G75*
G02*
X159908000Y-110688000I140000J0D01*
G01*
X160188000Y-110688000D01*
G75*
G02*
X160328000Y-110828000I0J-140000D01*
G01*
X160328000Y-111168000D01*
G75*
G02*
X160188000Y-111308000I-140000J0D01*
G01*
X159908000Y-111308000D01*
G75*
G02*
X159768000Y-111168000I0J140000D01*
G01*
G37*
%TD.AperFunction*%
%TD*%
%TO.P,D4,1*%
%TO.N,Net-(D4-Pad1)*%
X195681000Y-108670000D03*
%TO.P,D4,2*%
%TO.N,GND*%
X195681000Y-109770000D03*
%TO.P,D4,4*%
%TO.N,+5V*%
X197511000Y-108670000D03*
%TO.P,D4,3*%
%TO.N,Net-(D3-Pad1)*%
X197511000Y-109770000D03*
%TD*%
%TO.P,D3,1*%
%TO.N,Net-(D3-Pad1)*%
X194919000Y-106257000D03*
%TO.P,D3,2*%
%TO.N,GND*%
X194919000Y-107357000D03*
%TO.P,D3,4*%
%TO.N,+5V*%
X196749000Y-106257000D03*
%TO.P,D3,3*%
%TO.N,Net-(D2-Pad1)*%
X196749000Y-107357000D03*
%TD*%
%TO.P,D2,1*%
%TO.N,Net-(D2-Pad1)*%
X188494000Y-101007000D03*
%TO.P,D2,2*%
%TO.N,GND*%
X188494000Y-99907000D03*
%TO.P,D2,4*%
%TO.N,+5V*%
X186664000Y-101007000D03*
%TO.P,D2,3*%
%TO.N,Net-(D1-Pad1)*%
X186664000Y-99907000D03*
%TD*%
%TO.P,D1,1*%
%TO.N,Net-(D1-Pad1)*%
X178588000Y-101007000D03*
%TO.P,D1,2*%
%TO.N,GND*%
X178588000Y-99907000D03*
%TO.P,D1,4*%
%TO.N,+5V*%
X176758000Y-101007000D03*
%TO.P,D1,3*%
%TO.N,Net-(D1-Pad3)*%
X176758000Y-99907000D03*
%TD*%
%TO.P,C4,2*%
%TO.N,GND*%
%TA.AperFunction,SMDPad,CuDef*%
G36*
G01*
X194076500Y-103324000D02*
X194416500Y-103324000D01*
G75*
G02*
X194556500Y-103464000I0J-140000D01*
G01*
X194556500Y-103744000D01*
G75*
G02*
X194416500Y-103884000I-140000J0D01*
G01*
X194076500Y-103884000D01*
G75*
G02*
X193936500Y-103744000I0J140000D01*
G01*
X193936500Y-103464000D01*
G75*
G02*
X194076500Y-103324000I140000J0D01*
G01*
G37*
%TD.AperFunction*%
%TO.P,C4,1*%
%TO.N,+5V*%
%TA.AperFunction,SMDPad,CuDef*%
G36*
G01*
X194076500Y-102364000D02*
X194416500Y-102364000D01*
G75*
G02*
X194556500Y-102504000I0J-140000D01*
G01*
X194556500Y-102784000D01*
G75*
G02*
X194416500Y-102924000I-140000J0D01*
G01*
X194076500Y-102924000D01*
G75*
G02*
X193936500Y-102784000I0J140000D01*
G01*
X193936500Y-102504000D01*
G75*
G02*
X194076500Y-102364000I140000J0D01*
G01*
G37*
%TD.AperFunction*%
%TD*%
%TO.P,C3,2*%
%TO.N,GND*%
%TA.AperFunction,SMDPad,CuDef*%
G36*
G01*
X196396000Y-110701000D02*
X196396000Y-111041000D01*
G75*
G02*
X196256000Y-111181000I-140000J0D01*
G01*
X195976000Y-111181000D01*
G75*
G02*
X195836000Y-111041000I0J140000D01*
G01*
X195836000Y-110701000D01*
G75*
G02*
X195976000Y-110561000I140000J0D01*
G01*
X196256000Y-110561000D01*
G75*
G02*
X196396000Y-110701000I0J-140000D01*
G01*
G37*
%TD.AperFunction*%
%TO.P,C3,1*%
%TO.N,+5V*%
%TA.AperFunction,SMDPad,CuDef*%
G36*
G01*
X197356000Y-110701000D02*
X197356000Y-111041000D01*
G75*
G02*
X197216000Y-111181000I-140000J0D01*
G01*
X196936000Y-111181000D01*
G75*
G02*
X196796000Y-111041000I0J140000D01*
G01*
X196796000Y-110701000D01*
G75*
G02*
X196936000Y-110561000I140000J0D01*
G01*
X197216000Y-110561000D01*
G75*
G02*
X197356000Y-110701000I0J-140000D01*
G01*
G37*
%TD.AperFunction*%
%TD*%
%TO.P,C2,2*%
%TO.N,GND*%
%TA.AperFunction,SMDPad,CuDef*%
G36*
G01*
X174933000Y-100795000D02*
X174933000Y-101135000D01*
G75*
G02*
X174793000Y-101275000I-140000J0D01*
G01*
X174513000Y-101275000D01*
G75*
G02*
X174373000Y-101135000I0J140000D01*
G01*
X174373000Y-100795000D01*
G75*
G02*
X174513000Y-100655000I140000J0D01*
G01*
X174793000Y-100655000D01*
G75*
G02*
X174933000Y-100795000I0J-140000D01*
G01*
G37*
%TD.AperFunction*%
%TO.P,C2,1*%
%TO.N,+5V*%
%TA.AperFunction,SMDPad,CuDef*%
G36*
G01*
X175893000Y-100795000D02*
X175893000Y-101135000D01*
G75*
G02*
X175753000Y-101275000I-140000J0D01*
G01*
X175473000Y-101275000D01*
G75*
G02*
X175333000Y-101135000I0J140000D01*
G01*
X175333000Y-100795000D01*
G75*
G02*
X175473000Y-100655000I140000J0D01*
G01*
X175753000Y-100655000D01*
G75*
G02*
X175893000Y-100795000I0J-140000D01*
G01*
G37*
%TD.AperFunction*%
%TD*%
%TO.P,C1,2*%
%TO.N,GND*%
%TA.AperFunction,SMDPad,CuDef*%
G36*
G01*
X184966000Y-100795000D02*
X184966000Y-101135000D01*
G75*
G02*
X184826000Y-101275000I-140000J0D01*
G01*
X184546000Y-101275000D01*
G75*
G02*
X184406000Y-101135000I0J140000D01*
G01*
X184406000Y-100795000D01*
G75*
G02*
X184546000Y-100655000I140000J0D01*
G01*
X184826000Y-100655000D01*
G75*
G02*
X184966000Y-100795000I0J-140000D01*
G01*
G37*
%TD.AperFunction*%
%TO.P,C1,1*%
%TO.N,+5V*%
%TA.AperFunction,SMDPad,CuDef*%
G36*
G01*
X185926000Y-100795000D02*
X185926000Y-101135000D01*
G75*
G02*
X185786000Y-101275000I-140000J0D01*
G01*
X185506000Y-101275000D01*
G75*
G02*
X185366000Y-101135000I0J140000D01*
G01*
X185366000Y-100795000D01*
G75*
G02*
X185506000Y-100655000I140000J0D01*
G01*
X185786000Y-100655000D01*
G75*
G02*
X185926000Y-100795000I0J-140000D01*
G01*
G37*
%TD.AperFunction*%
%TD*%
D13*
%TO.N,GND*%
X195261959Y-107824787D03*
X196498045Y-111709610D03*
X179324000Y-100064349D03*
X171196000Y-100064349D03*
X160708134Y-111863145D03*
X160655000Y-103505000D03*
X160365010Y-107789649D03*
X160541173Y-110037617D03*
X166752060Y-100432010D03*
X174434500Y-100314385D03*
X184594500Y-100330000D03*
X188808974Y-100014349D03*
X194458993Y-104181515D03*
%TO.N,+5V*%
X187071000Y-100814350D03*
X176149000Y-100814350D03*
X168275000Y-100814350D03*
X165576890Y-101274207D03*
X192316578Y-101741269D03*
%TO.N,Net-(D2-Pad1)*%
X196981460Y-107107012D03*
X194119500Y-101854000D03*
%TO.N,Net-(D3-Pad1)*%
X195898998Y-107315000D03*
X197006580Y-109575271D03*
%TO.N,Net-(D5-Pad3)*%
X161919714Y-106849107D03*
X161671000Y-105029000D03*
X159004000Y-103505000D03*
X159004000Y-102235000D03*
%TO.N,Net-(D6-Pad1)*%
X161281214Y-109659012D03*
X164675492Y-101433128D03*
%TD*%
D14*
%TO.N,GND*%
X196116000Y-110205000D02*
X195691059Y-109780059D01*
X196116000Y-110871000D02*
X196116000Y-110205000D01*
X194963166Y-107525994D02*
X195261959Y-107824787D01*
X194919000Y-107389223D02*
X194963166Y-107525994D01*
X194919000Y-107357000D02*
X194919000Y-107389223D01*
X196226454Y-111438019D02*
X196498045Y-111709610D01*
X196116000Y-111095975D02*
X196226454Y-111438019D01*
X196116000Y-110871000D02*
X196116000Y-111095975D01*
X179166651Y-99907000D02*
X179324000Y-100064349D01*
X178588000Y-99907000D02*
X179166651Y-99907000D01*
X171038651Y-99907000D02*
X171196000Y-100064349D01*
X170587000Y-99907000D02*
X171038651Y-99907000D01*
X160979740Y-111591539D02*
X160708134Y-111863145D01*
X161008000Y-111504035D02*
X160979740Y-111591539D01*
X161008000Y-110998000D02*
X161008000Y-111504035D01*
X161191000Y-103505000D02*
X160655000Y-103505000D01*
X160502000Y-107103000D02*
X160502000Y-107652659D01*
X160502000Y-107652659D02*
X160365010Y-107789649D01*
X160541173Y-109613353D02*
X160541173Y-110037617D01*
X160765012Y-109389514D02*
X160541173Y-109613353D01*
X160994010Y-108670000D02*
X160765012Y-108898998D01*
X161570000Y-108670000D02*
X160994010Y-108670000D01*
X160765012Y-108898998D02*
X160765012Y-109389514D01*
X166779000Y-100458950D02*
X166752060Y-100432010D01*
X166779000Y-100965000D02*
X166779000Y-100458950D01*
X174653000Y-100532885D02*
X174434500Y-100314385D01*
X174653000Y-100965000D02*
X174653000Y-100532885D01*
X184686000Y-100421500D02*
X184594500Y-100330000D01*
X184686000Y-100965000D02*
X184686000Y-100421500D01*
X188701625Y-99907000D02*
X188808974Y-100014349D01*
X188494000Y-99907000D02*
X188701625Y-99907000D01*
X194310000Y-104032522D02*
X194458993Y-104181515D01*
X194310000Y-103604000D02*
X194310000Y-104032522D01*
%TO.N,+5V*%
X186856650Y-100814350D02*
X186681660Y-100989340D01*
X187071000Y-100814350D02*
X186856650Y-100814350D01*
X186622000Y-100965000D02*
X186646340Y-100989340D01*
X185646000Y-100965000D02*
X186622000Y-100965000D01*
X175763650Y-100814350D02*
X175613000Y-100965000D01*
X176149000Y-100814350D02*
X175763650Y-100814350D01*
X176565350Y-100814350D02*
X176740340Y-100989340D01*
X176149000Y-100814350D02*
X176565350Y-100814350D01*
X167889650Y-100814350D02*
X167739000Y-100965000D01*
X168275000Y-100814350D02*
X167889650Y-100814350D01*
X168564350Y-100814350D02*
X168739340Y-100989340D01*
X168275000Y-100814350D02*
X168564350Y-100814350D01*
X162332000Y-103686000D02*
X162151000Y-103505000D01*
X162332000Y-106003000D02*
X162332000Y-103686000D01*
X197076000Y-110871000D02*
X197076000Y-110528589D01*
X197076000Y-110528589D02*
X196356001Y-109808590D01*
X196356001Y-109224999D02*
X196911000Y-108670000D01*
X196356001Y-109808590D02*
X196356001Y-109224999D01*
X196911000Y-108670000D02*
X197511000Y-108670000D01*
X197588556Y-106919839D02*
X197574432Y-106850733D01*
X197557217Y-106782293D02*
X197031924Y-106257000D01*
X197607464Y-108573536D02*
X197607464Y-107059660D01*
X197607464Y-107059660D02*
X197599578Y-106989546D01*
X197599578Y-106989546D02*
X197588556Y-106919839D01*
X197511000Y-108670000D02*
X197607464Y-108573536D01*
X197574432Y-106850733D02*
X197557217Y-106782293D01*
X197031924Y-106257000D02*
X196749000Y-106257000D01*
X162151000Y-103195000D02*
X162151000Y-103505000D01*
X161825990Y-102869990D02*
X162151000Y-103195000D01*
X156972010Y-102869990D02*
X161825990Y-102869990D01*
X156845000Y-102997000D02*
X156972010Y-102869990D01*
X159740000Y-110380000D02*
X159740000Y-109770000D01*
X160048000Y-110688000D02*
X159740000Y-110380000D01*
X160048000Y-110998000D02*
X160048000Y-110688000D01*
X161294712Y-106440288D02*
X161732000Y-106003000D01*
X161294712Y-107784951D02*
X161294712Y-106440288D01*
X160365001Y-108714662D02*
X161294712Y-107784951D01*
X160365001Y-109144999D02*
X160365001Y-108714662D01*
X161732000Y-106003000D02*
X162332000Y-106003000D01*
X159740000Y-109770000D02*
X160365001Y-109144999D01*
X164816013Y-102053500D02*
X164922173Y-101973422D01*
X164923342Y-101966640D02*
X165031971Y-101889950D01*
X165576890Y-101345031D02*
X165576890Y-101274207D01*
X165031971Y-101889950D02*
X165576890Y-101345031D01*
X162151000Y-103505000D02*
X163602500Y-102053500D01*
X164922173Y-101973422D02*
X164923342Y-101966640D01*
X163602500Y-102053500D02*
X164816013Y-102053500D01*
X193219309Y-102644000D02*
X192316578Y-101741269D01*
X194310000Y-102644000D02*
X193219309Y-102644000D01*
X194246500Y-102644000D02*
X194246500Y-102679500D01*
X194857595Y-103290595D02*
X194881500Y-103365275D01*
X194246500Y-102679500D02*
X194857595Y-103290595D01*
X194881500Y-103365275D02*
X194881500Y-103759000D01*
X195066878Y-103944378D02*
X195453000Y-105150594D01*
X194881500Y-103759000D02*
X195066878Y-103944378D01*
X195453000Y-105345202D02*
X196364798Y-106257000D01*
X196364798Y-106257000D02*
X196749000Y-106257000D01*
X195453000Y-105150594D02*
X195453000Y-105345202D01*
D15*
%TO.N,Net-(D1-Pad3)*%
X170587000Y-101007000D02*
X172789992Y-101007000D01*
X172789992Y-101007000D02*
X174007633Y-99789359D01*
X174007633Y-99789359D02*
X176640359Y-99789359D01*
X176640359Y-99789359D02*
X176758000Y-99907000D01*
%TO.N,Net-(D1-Pad1)*%
X181377500Y-101007000D02*
X182579502Y-99804998D01*
X178588000Y-101007000D02*
X181377500Y-101007000D01*
X182579502Y-99804998D02*
X186561998Y-99804998D01*
X186561998Y-99804998D02*
X186664000Y-99907000D01*
D14*
%TO.N,Net-(D2-Pad1)*%
X196749000Y-107339472D02*
X196981460Y-107107012D01*
X196749000Y-107357000D02*
X196749000Y-107339472D01*
D15*
X193272500Y-101007000D02*
X194119500Y-101854000D01*
X188494000Y-101007000D02*
X193272500Y-101007000D01*
%TO.N,Net-(D3-Pad1)*%
X197201309Y-109770000D02*
X197006580Y-109575271D01*
X197511000Y-109770000D02*
X197201309Y-109770000D01*
X195898998Y-107236998D02*
X194919000Y-106257000D01*
X195898998Y-107315000D02*
X195898998Y-107236998D01*
D14*
%TO.N,Net-(D5-Pad1)*%
X159902000Y-106003000D02*
X160502000Y-106003000D01*
X159740000Y-106165000D02*
X159902000Y-106003000D01*
X159740000Y-108670000D02*
X159740000Y-106165000D01*
%TO.N,Net-(D5-Pad3)*%
X162332000Y-107103000D02*
X162173607Y-107103000D01*
X162173607Y-107103000D02*
X161919714Y-106849107D01*
X161671000Y-105029000D02*
X160401000Y-105029000D01*
X160401000Y-104902000D02*
X159004000Y-103505000D01*
X160401000Y-105029000D02*
X160401000Y-104902000D01*
X155480001Y-101821999D02*
X154305000Y-102997000D01*
X158166735Y-101821999D02*
X155480001Y-101821999D01*
X158579736Y-102235000D02*
X158166735Y-101821999D01*
X159004000Y-102235000D02*
X158579736Y-102235000D01*
D15*
%TO.N,Net-(D6-Pad1)*%
X161392202Y-109770000D02*
X161281214Y-109659012D01*
X161570000Y-109770000D02*
X161392202Y-109770000D01*
X168639359Y-99789359D02*
X168757000Y-99907000D01*
X166319261Y-99789359D02*
X168639359Y-99789359D01*
X164675492Y-101433128D02*
X166319261Y-99789359D01*
%TD*%
D16*
%TO.N,GND*%
X196662830Y-111449828D02*
X196747837Y-111495265D01*
X196840075Y-111523245D01*
X196936000Y-111532693D01*
X197216000Y-111532693D01*
X197311925Y-111523245D01*
X197404163Y-111495265D01*
X197405102Y-111494763D01*
X198547128Y-115062357D01*
X197528408Y-115388462D01*
X196282918Y-111531550D01*
X196396000Y-111532694D01*
X196464612Y-111525936D01*
X196530587Y-111505923D01*
X196591391Y-111473423D01*
X196641486Y-111432311D01*
X196662830Y-111449828D01*
%TA.AperFunction,Conductor*%
D17*
G36*
X196662830Y-111449828D02*
G01*
X196747837Y-111495265D01*
X196840075Y-111523245D01*
X196936000Y-111532693D01*
X197216000Y-111532693D01*
X197311925Y-111523245D01*
X197404163Y-111495265D01*
X197405102Y-111494763D01*
X198547128Y-115062357D01*
X197528408Y-115388462D01*
X196282918Y-111531550D01*
X196396000Y-111532694D01*
X196464612Y-111525936D01*
X196530587Y-111505923D01*
X196591391Y-111473423D01*
X196641486Y-111432311D01*
X196662830Y-111449828D01*
G37*
%TD.AperFunction*%
D16*
X160532609Y-111600423D02*
X160593413Y-111632923D01*
X160659388Y-111652936D01*
X160728000Y-111659694D01*
X160895500Y-111658000D01*
X160949433Y-111604067D01*
X159727287Y-115388372D01*
X158708845Y-115062357D01*
X159802072Y-111647211D01*
X159812075Y-111650245D01*
X159908000Y-111659693D01*
X160188000Y-111659693D01*
X160283925Y-111650245D01*
X160376163Y-111622265D01*
X160461170Y-111576828D01*
X160482514Y-111559311D01*
X160532609Y-111600423D01*
%TA.AperFunction,Conductor*%
D17*
G36*
X160532609Y-111600423D02*
G01*
X160593413Y-111632923D01*
X160659388Y-111652936D01*
X160728000Y-111659694D01*
X160895500Y-111658000D01*
X160949433Y-111604067D01*
X159727287Y-115388372D01*
X158708845Y-115062357D01*
X159802072Y-111647211D01*
X159812075Y-111650245D01*
X159908000Y-111659693D01*
X160188000Y-111659693D01*
X160283925Y-111650245D01*
X160376163Y-111622265D01*
X160461170Y-111576828D01*
X160482514Y-111559311D01*
X160532609Y-111600423D01*
G37*
%TD.AperFunction*%
D16*
X161033000Y-110973000D02*
X161053000Y-110973000D01*
X161053000Y-111023000D01*
X161033000Y-111023000D01*
X161033000Y-111043000D01*
X160983000Y-111043000D01*
X160983000Y-111023000D01*
X160963000Y-111023000D01*
X160963000Y-110973000D01*
X160983000Y-110973000D01*
X160983000Y-110953000D01*
X161033000Y-110953000D01*
X161033000Y-110973000D01*
%TA.AperFunction,Conductor*%
D17*
G36*
X161033000Y-110973000D02*
G01*
X161053000Y-110973000D01*
X161053000Y-111023000D01*
X161033000Y-111023000D01*
X161033000Y-111043000D01*
X160983000Y-111043000D01*
X160983000Y-111023000D01*
X160963000Y-111023000D01*
X160963000Y-110973000D01*
X160983000Y-110973000D01*
X160983000Y-110953000D01*
X161033000Y-110953000D01*
X161033000Y-110973000D01*
G37*
%TD.AperFunction*%
D16*
X196141000Y-110846000D02*
X196161000Y-110846000D01*
X196161000Y-110896000D01*
X196141000Y-110896000D01*
X196141000Y-110916000D01*
X196091000Y-110916000D01*
X196091000Y-110896000D01*
X196077684Y-110896000D01*
X196071000Y-110875303D01*
X196071000Y-110846000D01*
X196091000Y-110846000D01*
X196091000Y-110826000D01*
X196141000Y-110826000D01*
X196141000Y-110846000D01*
%TA.AperFunction,Conductor*%
D17*
G36*
X196141000Y-110846000D02*
G01*
X196161000Y-110846000D01*
X196161000Y-110896000D01*
X196141000Y-110896000D01*
X196141000Y-110916000D01*
X196091000Y-110916000D01*
X196091000Y-110896000D01*
X196077684Y-110896000D01*
X196071000Y-110875303D01*
X196071000Y-110846000D01*
X196091000Y-110846000D01*
X196091000Y-110826000D01*
X196141000Y-110826000D01*
X196141000Y-110846000D01*
G37*
%TD.AperFunction*%
D16*
X160631214Y-109594993D02*
X160631214Y-109723031D01*
X160656193Y-109848610D01*
X160705192Y-109966902D01*
X160776326Y-110073363D01*
X160866863Y-110163900D01*
X160873037Y-110168025D01*
X160875065Y-110188612D01*
X160895078Y-110254587D01*
X160927578Y-110315390D01*
X160971315Y-110368685D01*
X160982998Y-110378273D01*
X160982998Y-110425498D01*
X160895500Y-110338000D01*
X160728000Y-110336306D01*
X160659388Y-110343064D01*
X160593413Y-110363077D01*
X160532609Y-110395577D01*
X160482514Y-110436689D01*
X160461170Y-110419172D01*
X160426769Y-110400784D01*
X160385501Y-110350499D01*
X160367371Y-110335620D01*
X160366519Y-110334768D01*
X160382422Y-110315390D01*
X160414922Y-110254587D01*
X160434935Y-110188612D01*
X160441693Y-110120000D01*
X160441693Y-109740058D01*
X160642252Y-109539500D01*
X160631214Y-109594993D01*
%TA.AperFunction,Conductor*%
D17*
G36*
X160631214Y-109594993D02*
G01*
X160631214Y-109723031D01*
X160656193Y-109848610D01*
X160705192Y-109966902D01*
X160776326Y-110073363D01*
X160866863Y-110163900D01*
X160873037Y-110168025D01*
X160875065Y-110188612D01*
X160895078Y-110254587D01*
X160927578Y-110315390D01*
X160971315Y-110368685D01*
X160982998Y-110378273D01*
X160982998Y-110425498D01*
X160895500Y-110338000D01*
X160728000Y-110336306D01*
X160659388Y-110343064D01*
X160593413Y-110363077D01*
X160532609Y-110395577D01*
X160482514Y-110436689D01*
X160461170Y-110419172D01*
X160426769Y-110400784D01*
X160385501Y-110350499D01*
X160367371Y-110335620D01*
X160366519Y-110334768D01*
X160382422Y-110315390D01*
X160414922Y-110254587D01*
X160434935Y-110188612D01*
X160441693Y-110120000D01*
X160441693Y-109740058D01*
X160642252Y-109539500D01*
X160631214Y-109594993D01*
G37*
%TD.AperFunction*%
D16*
X195706000Y-109745000D02*
X195726000Y-109745000D01*
X195726000Y-109795000D01*
X195722144Y-109795000D01*
X195699539Y-109725000D01*
X195706000Y-109725000D01*
X195706000Y-109745000D01*
%TA.AperFunction,Conductor*%
D17*
G36*
X195706000Y-109745000D02*
G01*
X195726000Y-109745000D01*
X195726000Y-109795000D01*
X195722144Y-109795000D01*
X195699539Y-109725000D01*
X195706000Y-109725000D01*
X195706000Y-109745000D01*
G37*
%TD.AperFunction*%
D16*
X160868306Y-109020000D02*
X160875064Y-109088612D01*
X160890205Y-109138527D01*
X160866863Y-109154124D01*
X160838618Y-109182369D01*
X160842299Y-109144999D01*
X160840001Y-109121667D01*
X160840001Y-108911412D01*
X160869289Y-108882124D01*
X160868306Y-109020000D01*
%TA.AperFunction,Conductor*%
D17*
G36*
X160868306Y-109020000D02*
G01*
X160875064Y-109088612D01*
X160890205Y-109138527D01*
X160866863Y-109154124D01*
X160838618Y-109182369D01*
X160842299Y-109144999D01*
X160840001Y-109121667D01*
X160840001Y-108911412D01*
X160869289Y-108882124D01*
X160868306Y-109020000D01*
G37*
%TD.AperFunction*%
D16*
X161595000Y-108645000D02*
X161615000Y-108645000D01*
X161615000Y-108695000D01*
X161595000Y-108695000D01*
X161595000Y-108715000D01*
X161545000Y-108715000D01*
X161545000Y-108695000D01*
X161525000Y-108695000D01*
X161525000Y-108645000D01*
X161545000Y-108645000D01*
X161545000Y-108625000D01*
X161595000Y-108625000D01*
X161595000Y-108645000D01*
%TA.AperFunction,Conductor*%
D17*
G36*
X161595000Y-108645000D02*
G01*
X161615000Y-108645000D01*
X161615000Y-108695000D01*
X161595000Y-108695000D01*
X161595000Y-108715000D01*
X161545000Y-108715000D01*
X161545000Y-108695000D01*
X161525000Y-108695000D01*
X161525000Y-108645000D01*
X161545000Y-108645000D01*
X161545000Y-108625000D01*
X161595000Y-108625000D01*
X161595000Y-108645000D01*
G37*
%TD.AperFunction*%
D16*
X160527000Y-107078000D02*
X160547000Y-107078000D01*
X160547000Y-107128000D01*
X160527000Y-107128000D01*
X160527000Y-107715500D01*
X160609706Y-107798206D01*
X160337538Y-108070374D01*
X160285390Y-108027578D01*
X160224587Y-107995078D01*
X160215000Y-107992170D01*
X160215000Y-107804245D01*
X160389500Y-107803000D01*
X160477000Y-107715500D01*
X160477000Y-107128000D01*
X160457000Y-107128000D01*
X160457000Y-107078000D01*
X160477000Y-107078000D01*
X160477000Y-107058000D01*
X160527000Y-107058000D01*
X160527000Y-107078000D01*
%TA.AperFunction,Conductor*%
D17*
G36*
X160527000Y-107078000D02*
G01*
X160547000Y-107078000D01*
X160547000Y-107128000D01*
X160527000Y-107128000D01*
X160527000Y-107715500D01*
X160609706Y-107798206D01*
X160337538Y-108070374D01*
X160285390Y-108027578D01*
X160224587Y-107995078D01*
X160215000Y-107992170D01*
X160215000Y-107804245D01*
X160389500Y-107803000D01*
X160477000Y-107715500D01*
X160477000Y-107128000D01*
X160457000Y-107128000D01*
X160457000Y-107078000D01*
X160477000Y-107078000D01*
X160477000Y-107058000D01*
X160527000Y-107058000D01*
X160527000Y-107078000D01*
G37*
%TD.AperFunction*%
D16*
X194944000Y-107332000D02*
X194964000Y-107332000D01*
X194964000Y-107382000D01*
X194944000Y-107382000D01*
X194944000Y-107385320D01*
X194920323Y-107312000D01*
X194944000Y-107312000D01*
X194944000Y-107332000D01*
%TA.AperFunction,Conductor*%
D17*
G36*
X194944000Y-107332000D02*
G01*
X194964000Y-107332000D01*
X194964000Y-107382000D01*
X194944000Y-107382000D01*
X194944000Y-107385320D01*
X194920323Y-107312000D01*
X194944000Y-107312000D01*
X194944000Y-107332000D01*
G37*
%TD.AperFunction*%
D16*
X194271500Y-103579000D02*
X194291500Y-103579000D01*
X194291500Y-103629000D01*
X194271500Y-103629000D01*
X194271500Y-104146500D01*
X194359000Y-104234000D01*
X194556500Y-104235694D01*
X194625112Y-104228936D01*
X194656206Y-104219504D01*
X194978000Y-105224764D01*
X194978000Y-105321870D01*
X194975702Y-105345202D01*
X194978000Y-105368533D01*
X194978000Y-105368534D01*
X194984873Y-105438318D01*
X195012034Y-105527856D01*
X195026707Y-105555307D01*
X194569000Y-105555307D01*
X194500388Y-105562065D01*
X194434413Y-105582078D01*
X194373610Y-105614578D01*
X194372483Y-105615503D01*
X193926594Y-104234718D01*
X193936500Y-104235694D01*
X194134000Y-104234000D01*
X194221500Y-104146500D01*
X194221500Y-103629000D01*
X194201500Y-103629000D01*
X194201500Y-103579000D01*
X194221500Y-103579000D01*
X194221500Y-103559000D01*
X194271500Y-103559000D01*
X194271500Y-103579000D01*
%TA.AperFunction,Conductor*%
D17*
G36*
X194271500Y-103579000D02*
G01*
X194291500Y-103579000D01*
X194291500Y-103629000D01*
X194271500Y-103629000D01*
X194271500Y-104146500D01*
X194359000Y-104234000D01*
X194556500Y-104235694D01*
X194625112Y-104228936D01*
X194656206Y-104219504D01*
X194978000Y-105224764D01*
X194978000Y-105321870D01*
X194975702Y-105345202D01*
X194978000Y-105368533D01*
X194978000Y-105368534D01*
X194984873Y-105438318D01*
X195012034Y-105527856D01*
X195026707Y-105555307D01*
X194569000Y-105555307D01*
X194500388Y-105562065D01*
X194434413Y-105582078D01*
X194373610Y-105614578D01*
X194372483Y-105615503D01*
X193926594Y-104234718D01*
X193936500Y-104235694D01*
X194134000Y-104234000D01*
X194221500Y-104146500D01*
X194221500Y-103629000D01*
X194201500Y-103629000D01*
X194201500Y-103579000D01*
X194221500Y-103579000D01*
X194221500Y-103559000D01*
X194271500Y-103559000D01*
X194271500Y-103579000D01*
G37*
%TD.AperFunction*%
D16*
X160561000Y-103392500D02*
X160648500Y-103480000D01*
X161166000Y-103480000D01*
X161166000Y-103460000D01*
X161216000Y-103460000D01*
X161216000Y-103480000D01*
X161236000Y-103480000D01*
X161236000Y-103530000D01*
X161216000Y-103530000D01*
X161216000Y-104077500D01*
X161303500Y-104165000D01*
X161471000Y-104166694D01*
X161539612Y-104159936D01*
X161605587Y-104139923D01*
X161666391Y-104107423D01*
X161716486Y-104066311D01*
X161737830Y-104083828D01*
X161822837Y-104129265D01*
X161857001Y-104139628D01*
X161857001Y-104403263D01*
X161735019Y-104379000D01*
X161606981Y-104379000D01*
X161481402Y-104403979D01*
X161363110Y-104452978D01*
X161256649Y-104524112D01*
X161226761Y-104554000D01*
X160725708Y-104554000D01*
X160720371Y-104549620D01*
X159985751Y-103815000D01*
X160559306Y-103815000D01*
X160566064Y-103883612D01*
X160586077Y-103949587D01*
X160618577Y-104010391D01*
X160662315Y-104063685D01*
X160715609Y-104107423D01*
X160776413Y-104139923D01*
X160842388Y-104159936D01*
X160911000Y-104166694D01*
X161078500Y-104165000D01*
X161166000Y-104077500D01*
X161166000Y-103530000D01*
X160648500Y-103530000D01*
X160561000Y-103617500D01*
X160559306Y-103815000D01*
X159985751Y-103815000D01*
X159654000Y-103483250D01*
X159654000Y-103440981D01*
X159634906Y-103344990D01*
X160560592Y-103344990D01*
X160561000Y-103392500D01*
%TA.AperFunction,Conductor*%
D17*
G36*
X160561000Y-103392500D02*
G01*
X160648500Y-103480000D01*
X161166000Y-103480000D01*
X161166000Y-103460000D01*
X161216000Y-103460000D01*
X161216000Y-103480000D01*
X161236000Y-103480000D01*
X161236000Y-103530000D01*
X161216000Y-103530000D01*
X161216000Y-104077500D01*
X161303500Y-104165000D01*
X161471000Y-104166694D01*
X161539612Y-104159936D01*
X161605587Y-104139923D01*
X161666391Y-104107423D01*
X161716486Y-104066311D01*
X161737830Y-104083828D01*
X161822837Y-104129265D01*
X161857001Y-104139628D01*
X161857001Y-104403263D01*
X161735019Y-104379000D01*
X161606981Y-104379000D01*
X161481402Y-104403979D01*
X161363110Y-104452978D01*
X161256649Y-104524112D01*
X161226761Y-104554000D01*
X160725708Y-104554000D01*
X160720371Y-104549620D01*
X159985751Y-103815000D01*
X160559306Y-103815000D01*
X160566064Y-103883612D01*
X160586077Y-103949587D01*
X160618577Y-104010391D01*
X160662315Y-104063685D01*
X160715609Y-104107423D01*
X160776413Y-104139923D01*
X160842388Y-104159936D01*
X160911000Y-104166694D01*
X161078500Y-104165000D01*
X161166000Y-104077500D01*
X161166000Y-103530000D01*
X160648500Y-103530000D01*
X160561000Y-103617500D01*
X160559306Y-103815000D01*
X159985751Y-103815000D01*
X159654000Y-103483250D01*
X159654000Y-103440981D01*
X159634906Y-103344990D01*
X160560592Y-103344990D01*
X160561000Y-103392500D01*
G37*
%TD.AperFunction*%
D16*
X156946366Y-100249726D02*
X156944188Y-100271841D01*
X156952876Y-100360056D01*
X156978608Y-100444882D01*
X157020394Y-100523057D01*
X157076628Y-100591578D01*
X157145149Y-100647812D01*
X157223324Y-100689598D01*
X157308150Y-100715330D01*
X157374260Y-100721841D01*
X157374261Y-100721841D01*
X157396365Y-100724018D01*
X157418470Y-100721841D01*
X162967554Y-100721841D01*
X163008401Y-100722465D01*
X163033632Y-100717846D01*
X163059176Y-100715330D01*
X163077141Y-100709880D01*
X163095594Y-100706502D01*
X163119438Y-100697049D01*
X163144002Y-100689598D01*
X163160559Y-100680748D01*
X163177997Y-100673835D01*
X163199539Y-100659912D01*
X163222177Y-100647812D01*
X163236688Y-100635903D01*
X163252444Y-100625720D01*
X163270859Y-100607860D01*
X163290698Y-100591578D01*
X163302605Y-100577070D01*
X163316074Y-100564006D01*
X163330652Y-100542894D01*
X163346932Y-100523057D01*
X163355780Y-100506503D01*
X163366442Y-100491063D01*
X163376620Y-100467516D01*
X163388718Y-100444882D01*
X163400596Y-100405724D01*
X163413841Y-100364350D01*
X165143230Y-100364350D01*
X164724452Y-100783128D01*
X164611473Y-100783128D01*
X164485894Y-100808107D01*
X164367602Y-100857106D01*
X164261141Y-100928240D01*
X164170604Y-101018777D01*
X164099470Y-101125238D01*
X164050471Y-101243530D01*
X164025492Y-101369109D01*
X164025492Y-101497147D01*
X164041674Y-101578500D01*
X163625832Y-101578500D01*
X163602500Y-101576202D01*
X163509383Y-101585373D01*
X163487356Y-101592055D01*
X163419846Y-101612534D01*
X163337327Y-101656641D01*
X163264999Y-101715999D01*
X163250120Y-101734129D01*
X162306000Y-102678249D01*
X162178373Y-102550623D01*
X162163491Y-102532489D01*
X162091163Y-102473131D01*
X162008644Y-102429024D01*
X161919106Y-102401863D01*
X161849322Y-102394990D01*
X161825990Y-102392692D01*
X161802658Y-102394990D01*
X159634910Y-102394990D01*
X159654000Y-102299019D01*
X159654000Y-102170981D01*
X159629021Y-102045402D01*
X159580022Y-101927110D01*
X159508888Y-101820649D01*
X159418351Y-101730112D01*
X159311890Y-101658978D01*
X159193598Y-101609979D01*
X159068019Y-101585000D01*
X158939981Y-101585000D01*
X158814402Y-101609979D01*
X158696110Y-101658978D01*
X158683734Y-101667247D01*
X158519118Y-101502632D01*
X158504236Y-101484498D01*
X158431908Y-101425140D01*
X158349389Y-101381033D01*
X158259851Y-101353872D01*
X158190067Y-101346999D01*
X158166735Y-101344701D01*
X158143403Y-101346999D01*
X155503332Y-101346999D01*
X155480000Y-101344701D01*
X155386884Y-101353872D01*
X155370326Y-101358895D01*
X155297347Y-101381033D01*
X155214828Y-101425140D01*
X155142500Y-101484498D01*
X155127621Y-101502628D01*
X154748440Y-101881809D01*
X154655027Y-101843116D01*
X154423190Y-101797000D01*
X154186810Y-101797000D01*
X153954973Y-101843116D01*
X153736587Y-101933574D01*
X153540045Y-102064899D01*
X153372899Y-102232045D01*
X153241574Y-102428587D01*
X153151116Y-102646973D01*
X153105000Y-102878810D01*
X153105000Y-103115190D01*
X153151116Y-103347027D01*
X153241574Y-103565413D01*
X153372899Y-103761955D01*
X153486627Y-103875683D01*
X152575105Y-103875683D01*
X152629026Y-103829742D01*
X152774884Y-103645178D01*
X152881933Y-103435705D01*
X152946059Y-103209373D01*
X152877241Y-103022000D01*
X151790000Y-103022000D01*
X151790000Y-103042000D01*
X151740000Y-103042000D01*
X151740000Y-103022000D01*
X150652759Y-103022000D01*
X150583941Y-103209373D01*
X150648067Y-103435705D01*
X150755116Y-103645178D01*
X150900974Y-103829742D01*
X150954895Y-103875683D01*
X150450000Y-103875683D01*
X150450000Y-102784627D01*
X150583941Y-102784627D01*
X150652759Y-102972000D01*
X151740000Y-102972000D01*
X151740000Y-101884781D01*
X151790000Y-101884781D01*
X151790000Y-102972000D01*
X152877241Y-102972000D01*
X152946059Y-102784627D01*
X152881933Y-102558295D01*
X152774884Y-102348822D01*
X152629026Y-102164258D01*
X152449964Y-102011696D01*
X152244579Y-101896998D01*
X152020764Y-101824573D01*
X151977373Y-101815942D01*
X151790000Y-101884781D01*
X151740000Y-101884781D01*
X151552627Y-101815942D01*
X151509236Y-101824573D01*
X151285421Y-101896998D01*
X151080036Y-102011696D01*
X150900974Y-102164258D01*
X150755116Y-102348822D01*
X150648067Y-102558295D01*
X150583941Y-102784627D01*
X150450000Y-102784627D01*
X150450000Y-100209838D01*
X154121422Y-97129149D01*
X154127029Y-97123418D01*
X154580396Y-96714624D01*
X154582151Y-96712817D01*
X154584114Y-96711234D01*
X154612841Y-96682224D01*
X155392460Y-95819976D01*
X155398305Y-95812580D01*
X155404805Y-95805735D01*
X155429443Y-95773180D01*
X155892436Y-95100000D01*
X156946365Y-95100000D01*
X156946366Y-100249726D01*
%TA.AperFunction,Conductor*%
D17*
G36*
X156946366Y-100249726D02*
G01*
X156944188Y-100271841D01*
X156952876Y-100360056D01*
X156978608Y-100444882D01*
X157020394Y-100523057D01*
X157076628Y-100591578D01*
X157145149Y-100647812D01*
X157223324Y-100689598D01*
X157308150Y-100715330D01*
X157374260Y-100721841D01*
X157374261Y-100721841D01*
X157396365Y-100724018D01*
X157418470Y-100721841D01*
X162967554Y-100721841D01*
X163008401Y-100722465D01*
X163033632Y-100717846D01*
X163059176Y-100715330D01*
X163077141Y-100709880D01*
X163095594Y-100706502D01*
X163119438Y-100697049D01*
X163144002Y-100689598D01*
X163160559Y-100680748D01*
X163177997Y-100673835D01*
X163199539Y-100659912D01*
X163222177Y-100647812D01*
X163236688Y-100635903D01*
X163252444Y-100625720D01*
X163270859Y-100607860D01*
X163290698Y-100591578D01*
X163302605Y-100577070D01*
X163316074Y-100564006D01*
X163330652Y-100542894D01*
X163346932Y-100523057D01*
X163355780Y-100506503D01*
X163366442Y-100491063D01*
X163376620Y-100467516D01*
X163388718Y-100444882D01*
X163400596Y-100405724D01*
X163413841Y-100364350D01*
X165143230Y-100364350D01*
X164724452Y-100783128D01*
X164611473Y-100783128D01*
X164485894Y-100808107D01*
X164367602Y-100857106D01*
X164261141Y-100928240D01*
X164170604Y-101018777D01*
X164099470Y-101125238D01*
X164050471Y-101243530D01*
X164025492Y-101369109D01*
X164025492Y-101497147D01*
X164041674Y-101578500D01*
X163625832Y-101578500D01*
X163602500Y-101576202D01*
X163509383Y-101585373D01*
X163487356Y-101592055D01*
X163419846Y-101612534D01*
X163337327Y-101656641D01*
X163264999Y-101715999D01*
X163250120Y-101734129D01*
X162306000Y-102678249D01*
X162178373Y-102550623D01*
X162163491Y-102532489D01*
X162091163Y-102473131D01*
X162008644Y-102429024D01*
X161919106Y-102401863D01*
X161849322Y-102394990D01*
X161825990Y-102392692D01*
X161802658Y-102394990D01*
X159634910Y-102394990D01*
X159654000Y-102299019D01*
X159654000Y-102170981D01*
X159629021Y-102045402D01*
X159580022Y-101927110D01*
X159508888Y-101820649D01*
X159418351Y-101730112D01*
X159311890Y-101658978D01*
X159193598Y-101609979D01*
X159068019Y-101585000D01*
X158939981Y-101585000D01*
X158814402Y-101609979D01*
X158696110Y-101658978D01*
X158683734Y-101667247D01*
X158519118Y-101502632D01*
X158504236Y-101484498D01*
X158431908Y-101425140D01*
X158349389Y-101381033D01*
X158259851Y-101353872D01*
X158190067Y-101346999D01*
X158166735Y-101344701D01*
X158143403Y-101346999D01*
X155503332Y-101346999D01*
X155480000Y-101344701D01*
X155386884Y-101353872D01*
X155370326Y-101358895D01*
X155297347Y-101381033D01*
X155214828Y-101425140D01*
X155142500Y-101484498D01*
X155127621Y-101502628D01*
X154748440Y-101881809D01*
X154655027Y-101843116D01*
X154423190Y-101797000D01*
X154186810Y-101797000D01*
X153954973Y-101843116D01*
X153736587Y-101933574D01*
X153540045Y-102064899D01*
X153372899Y-102232045D01*
X153241574Y-102428587D01*
X153151116Y-102646973D01*
X153105000Y-102878810D01*
X153105000Y-103115190D01*
X153151116Y-103347027D01*
X153241574Y-103565413D01*
X153372899Y-103761955D01*
X153486627Y-103875683D01*
X152575105Y-103875683D01*
X152629026Y-103829742D01*
X152774884Y-103645178D01*
X152881933Y-103435705D01*
X152946059Y-103209373D01*
X152877241Y-103022000D01*
X151790000Y-103022000D01*
X151790000Y-103042000D01*
X151740000Y-103042000D01*
X151740000Y-103022000D01*
X150652759Y-103022000D01*
X150583941Y-103209373D01*
X150648067Y-103435705D01*
X150755116Y-103645178D01*
X150900974Y-103829742D01*
X150954895Y-103875683D01*
X150450000Y-103875683D01*
X150450000Y-102784627D01*
X150583941Y-102784627D01*
X150652759Y-102972000D01*
X151740000Y-102972000D01*
X151740000Y-101884781D01*
X151790000Y-101884781D01*
X151790000Y-102972000D01*
X152877241Y-102972000D01*
X152946059Y-102784627D01*
X152881933Y-102558295D01*
X152774884Y-102348822D01*
X152629026Y-102164258D01*
X152449964Y-102011696D01*
X152244579Y-101896998D01*
X152020764Y-101824573D01*
X151977373Y-101815942D01*
X151790000Y-101884781D01*
X151740000Y-101884781D01*
X151552627Y-101815942D01*
X151509236Y-101824573D01*
X151285421Y-101896998D01*
X151080036Y-102011696D01*
X150900974Y-102164258D01*
X150755116Y-102348822D01*
X150648067Y-102558295D01*
X150583941Y-102784627D01*
X150450000Y-102784627D01*
X150450000Y-100209838D01*
X154121422Y-97129149D01*
X154127029Y-97123418D01*
X154580396Y-96714624D01*
X154582151Y-96712817D01*
X154584114Y-96711234D01*
X154612841Y-96682224D01*
X155392460Y-95819976D01*
X155398305Y-95812580D01*
X155404805Y-95805735D01*
X155429443Y-95773180D01*
X155892436Y-95100000D01*
X156946365Y-95100000D01*
X156946366Y-100249726D01*
G37*
%TD.AperFunction*%
D16*
X167967110Y-100238328D02*
X167869861Y-100303307D01*
X167599000Y-100303307D01*
X167503075Y-100312755D01*
X167410837Y-100340735D01*
X167325830Y-100386172D01*
X167304486Y-100403689D01*
X167254391Y-100362577D01*
X167193587Y-100330077D01*
X167127612Y-100310064D01*
X167059000Y-100303306D01*
X166891500Y-100305000D01*
X166804000Y-100392500D01*
X166804000Y-100940000D01*
X166824000Y-100940000D01*
X166824000Y-100990000D01*
X166804000Y-100990000D01*
X166804000Y-101010000D01*
X166754000Y-101010000D01*
X166754000Y-100990000D01*
X166734000Y-100990000D01*
X166734000Y-100940000D01*
X166754000Y-100940000D01*
X166754000Y-100392500D01*
X166666500Y-100305000D01*
X166499000Y-100303306D01*
X166430388Y-100310064D01*
X166386190Y-100323471D01*
X166495302Y-100214359D01*
X168024975Y-100214359D01*
X167967110Y-100238328D01*
%TA.AperFunction,Conductor*%
D17*
G36*
X167967110Y-100238328D02*
G01*
X167869861Y-100303307D01*
X167599000Y-100303307D01*
X167503075Y-100312755D01*
X167410837Y-100340735D01*
X167325830Y-100386172D01*
X167304486Y-100403689D01*
X167254391Y-100362577D01*
X167193587Y-100330077D01*
X167127612Y-100310064D01*
X167059000Y-100303306D01*
X166891500Y-100305000D01*
X166804000Y-100392500D01*
X166804000Y-100940000D01*
X166824000Y-100940000D01*
X166824000Y-100990000D01*
X166804000Y-100990000D01*
X166804000Y-101010000D01*
X166754000Y-101010000D01*
X166754000Y-100990000D01*
X166734000Y-100990000D01*
X166734000Y-100940000D01*
X166754000Y-100940000D01*
X166754000Y-100392500D01*
X166666500Y-100305000D01*
X166499000Y-100303306D01*
X166430388Y-100310064D01*
X166386190Y-100323471D01*
X166495302Y-100214359D01*
X168024975Y-100214359D01*
X167967110Y-100238328D01*
G37*
%TD.AperFunction*%
D16*
X175841110Y-100238328D02*
X175743861Y-100303307D01*
X175473000Y-100303307D01*
X175377075Y-100312755D01*
X175284837Y-100340735D01*
X175199830Y-100386172D01*
X175178486Y-100403689D01*
X175128391Y-100362577D01*
X175067587Y-100330077D01*
X175001612Y-100310064D01*
X174933000Y-100303306D01*
X174765500Y-100305000D01*
X174678000Y-100392500D01*
X174678000Y-100940000D01*
X174698000Y-100940000D01*
X174698000Y-100964350D01*
X174608000Y-100964350D01*
X174608000Y-100940000D01*
X174628000Y-100940000D01*
X174628000Y-100392500D01*
X174540500Y-100305000D01*
X174373000Y-100303306D01*
X174304388Y-100310064D01*
X174238413Y-100330077D01*
X174177609Y-100362577D01*
X174124315Y-100406315D01*
X174080577Y-100459609D01*
X174048077Y-100520413D01*
X174028064Y-100586388D01*
X174021306Y-100655000D01*
X174023000Y-100852500D01*
X174110498Y-100939998D01*
X174023000Y-100939998D01*
X174023000Y-100964350D01*
X173433682Y-100964350D01*
X174183674Y-100214359D01*
X175898975Y-100214359D01*
X175841110Y-100238328D01*
%TA.AperFunction,Conductor*%
D17*
G36*
X175841110Y-100238328D02*
G01*
X175743861Y-100303307D01*
X175473000Y-100303307D01*
X175377075Y-100312755D01*
X175284837Y-100340735D01*
X175199830Y-100386172D01*
X175178486Y-100403689D01*
X175128391Y-100362577D01*
X175067587Y-100330077D01*
X175001612Y-100310064D01*
X174933000Y-100303306D01*
X174765500Y-100305000D01*
X174678000Y-100392500D01*
X174678000Y-100940000D01*
X174698000Y-100940000D01*
X174698000Y-100964350D01*
X174608000Y-100964350D01*
X174608000Y-100940000D01*
X174628000Y-100940000D01*
X174628000Y-100392500D01*
X174540500Y-100305000D01*
X174373000Y-100303306D01*
X174304388Y-100310064D01*
X174238413Y-100330077D01*
X174177609Y-100362577D01*
X174124315Y-100406315D01*
X174080577Y-100459609D01*
X174048077Y-100520413D01*
X174028064Y-100586388D01*
X174021306Y-100655000D01*
X174023000Y-100852500D01*
X174110498Y-100939998D01*
X174023000Y-100939998D01*
X174023000Y-100964350D01*
X173433682Y-100964350D01*
X174183674Y-100214359D01*
X175898975Y-100214359D01*
X175841110Y-100238328D01*
G37*
%TD.AperFunction*%
D16*
X185962307Y-100257000D02*
X185969065Y-100325612D01*
X185973601Y-100340564D01*
X185881925Y-100312755D01*
X185786000Y-100303307D01*
X185506000Y-100303307D01*
X185410075Y-100312755D01*
X185317837Y-100340735D01*
X185232830Y-100386172D01*
X185211486Y-100403689D01*
X185161391Y-100362577D01*
X185100587Y-100330077D01*
X185034612Y-100310064D01*
X184966000Y-100303306D01*
X184798500Y-100305000D01*
X184711000Y-100392500D01*
X184711000Y-100940000D01*
X184731000Y-100940000D01*
X184731000Y-100964350D01*
X184641000Y-100964350D01*
X184641000Y-100940000D01*
X184661000Y-100940000D01*
X184661000Y-100392500D01*
X184573500Y-100305000D01*
X184406000Y-100303306D01*
X184337388Y-100310064D01*
X184271413Y-100330077D01*
X184210609Y-100362577D01*
X184157315Y-100406315D01*
X184113577Y-100459609D01*
X184081077Y-100520413D01*
X184061064Y-100586388D01*
X184054306Y-100655000D01*
X184056000Y-100852500D01*
X184143498Y-100939998D01*
X184056000Y-100939998D01*
X184056000Y-100964350D01*
X182021190Y-100964350D01*
X182755542Y-100229998D01*
X185962307Y-100229998D01*
X185962307Y-100257000D01*
%TA.AperFunction,Conductor*%
D17*
G36*
X185962307Y-100257000D02*
G01*
X185969065Y-100325612D01*
X185973601Y-100340564D01*
X185881925Y-100312755D01*
X185786000Y-100303307D01*
X185506000Y-100303307D01*
X185410075Y-100312755D01*
X185317837Y-100340735D01*
X185232830Y-100386172D01*
X185211486Y-100403689D01*
X185161391Y-100362577D01*
X185100587Y-100330077D01*
X185034612Y-100310064D01*
X184966000Y-100303306D01*
X184798500Y-100305000D01*
X184711000Y-100392500D01*
X184711000Y-100940000D01*
X184731000Y-100940000D01*
X184731000Y-100964350D01*
X184641000Y-100964350D01*
X184641000Y-100940000D01*
X184661000Y-100940000D01*
X184661000Y-100392500D01*
X184573500Y-100305000D01*
X184406000Y-100303306D01*
X184337388Y-100310064D01*
X184271413Y-100330077D01*
X184210609Y-100362577D01*
X184157315Y-100406315D01*
X184113577Y-100459609D01*
X184081077Y-100520413D01*
X184061064Y-100586388D01*
X184054306Y-100655000D01*
X184056000Y-100852500D01*
X184143498Y-100939998D01*
X184056000Y-100939998D01*
X184056000Y-100964350D01*
X182021190Y-100964350D01*
X182755542Y-100229998D01*
X185962307Y-100229998D01*
X185962307Y-100257000D01*
G37*
%TD.AperFunction*%
D16*
X181201460Y-100582000D02*
X179280997Y-100582000D01*
X179262922Y-100522413D01*
X179230422Y-100461610D01*
X179226640Y-100457001D01*
X179230423Y-100452391D01*
X179262923Y-100391587D01*
X179282936Y-100325612D01*
X179289694Y-100257000D01*
X179288000Y-100019500D01*
X179200502Y-99932002D01*
X179288000Y-99932002D01*
X179288000Y-99914349D01*
X181869111Y-99914349D01*
X181201460Y-100582000D01*
%TA.AperFunction,Conductor*%
D17*
G36*
X181201460Y-100582000D02*
G01*
X179280997Y-100582000D01*
X179262922Y-100522413D01*
X179230422Y-100461610D01*
X179226640Y-100457001D01*
X179230423Y-100452391D01*
X179262923Y-100391587D01*
X179282936Y-100325612D01*
X179289694Y-100257000D01*
X179288000Y-100019500D01*
X179200502Y-99932002D01*
X179288000Y-99932002D01*
X179288000Y-99914349D01*
X181869111Y-99914349D01*
X181201460Y-100582000D01*
G37*
%TD.AperFunction*%
D16*
X172613952Y-100582000D02*
X171279997Y-100582000D01*
X171261922Y-100522413D01*
X171229422Y-100461610D01*
X171225640Y-100457001D01*
X171229423Y-100452391D01*
X171261923Y-100391587D01*
X171281936Y-100325612D01*
X171288694Y-100257000D01*
X171287000Y-100019500D01*
X171199502Y-99932002D01*
X171287000Y-99932002D01*
X171287000Y-99914349D01*
X173281602Y-99914349D01*
X172613952Y-100582000D01*
%TA.AperFunction,Conductor*%
D17*
G36*
X172613952Y-100582000D02*
G01*
X171279997Y-100582000D01*
X171261922Y-100522413D01*
X171229422Y-100461610D01*
X171225640Y-100457001D01*
X171229423Y-100452391D01*
X171261923Y-100391587D01*
X171281936Y-100325612D01*
X171288694Y-100257000D01*
X171287000Y-100019500D01*
X171199502Y-99932002D01*
X171287000Y-99932002D01*
X171287000Y-99914349D01*
X173281602Y-99914349D01*
X172613952Y-100582000D01*
G37*
%TD.AperFunction*%
D16*
X170632000Y-99932000D02*
X170612000Y-99932000D01*
X170612000Y-99952000D01*
X170562000Y-99952000D01*
X170562000Y-99932000D01*
X170542000Y-99932000D01*
X170542000Y-99914349D01*
X170632000Y-99914349D01*
X170632000Y-99932000D01*
%TA.AperFunction,Conductor*%
D17*
G36*
X170632000Y-99932000D02*
G01*
X170612000Y-99932000D01*
X170612000Y-99952000D01*
X170562000Y-99952000D01*
X170562000Y-99932000D01*
X170542000Y-99932000D01*
X170542000Y-99914349D01*
X170632000Y-99914349D01*
X170632000Y-99932000D01*
G37*
%TD.AperFunction*%
D16*
X178633000Y-99932000D02*
X178613000Y-99932000D01*
X178613000Y-99952000D01*
X178563000Y-99952000D01*
X178563000Y-99932000D01*
X178543000Y-99932000D01*
X178543000Y-99914349D01*
X178633000Y-99914349D01*
X178633000Y-99932000D01*
%TA.AperFunction,Conductor*%
D17*
G36*
X178633000Y-99932000D02*
G01*
X178613000Y-99932000D01*
X178613000Y-99952000D01*
X178563000Y-99952000D01*
X178563000Y-99932000D01*
X178543000Y-99932000D01*
X178543000Y-99914349D01*
X178633000Y-99914349D01*
X178633000Y-99932000D01*
G37*
%TD.AperFunction*%
D16*
X188539000Y-99932000D02*
X188519000Y-99932000D01*
X188519000Y-99952000D01*
X188469000Y-99952000D01*
X188469000Y-99932000D01*
X188449000Y-99932000D01*
X188449000Y-99914349D01*
X188539000Y-99914349D01*
X188539000Y-99932000D01*
%TA.AperFunction,Conductor*%
D17*
G36*
X188539000Y-99932000D02*
G01*
X188519000Y-99932000D01*
X188519000Y-99952000D01*
X188469000Y-99952000D01*
X188469000Y-99932000D01*
X188449000Y-99932000D01*
X188449000Y-99914349D01*
X188539000Y-99914349D01*
X188539000Y-99932000D01*
G37*
%TD.AperFunction*%
%TD*%
M02*
