%TF.GenerationSoftware,KiCad,Pcbnew,5.1.9-73d0e3b20d~88~ubuntu20.04.1*%
%TF.CreationDate,2021-04-06T18:29:42+02:00*%
%TF.ProjectId,AB_LED_PCB,41425f4c-4544-45f5-9043-422e6b696361,rev?*%
%TF.SameCoordinates,Original*%
%TF.FileFunction,Legend,Bot*%
%TF.FilePolarity,Positive*%
%FSLAX46Y46*%
G04 Gerber Fmt 4.6, Leading zero omitted, Abs format (unit mm)*
G04 Created by KiCad (PCBNEW 5.1.9-73d0e3b20d~88~ubuntu20.04.1) date 2021-04-06 18:29:42*
%MOMM*%
%LPD*%
G01*
G04 APERTURE LIST*
%ADD10C,0.150000*%
%ADD11C,0.010000*%
%ADD12C,0.120000*%
G04 APERTURE END LIST*
D10*
X154757380Y-99560190D02*
X153757380Y-99560190D01*
X153757380Y-99798285D01*
X153805000Y-99941142D01*
X153900238Y-100036380D01*
X153995476Y-100084000D01*
X154185952Y-100131619D01*
X154328809Y-100131619D01*
X154519285Y-100084000D01*
X154614523Y-100036380D01*
X154709761Y-99941142D01*
X154757380Y-99798285D01*
X154757380Y-99560190D01*
X154757380Y-100560190D02*
X153757380Y-100560190D01*
X154757380Y-101036380D02*
X153757380Y-101036380D01*
X154757380Y-101607809D01*
X153757380Y-101607809D01*
X156297380Y-100901523D02*
X156297380Y-100425333D01*
X156773571Y-100377714D01*
X156725952Y-100425333D01*
X156678333Y-100520571D01*
X156678333Y-100758666D01*
X156725952Y-100853904D01*
X156773571Y-100901523D01*
X156868809Y-100949142D01*
X157106904Y-100949142D01*
X157202142Y-100901523D01*
X157249761Y-100853904D01*
X157297380Y-100758666D01*
X157297380Y-100520571D01*
X157249761Y-100425333D01*
X157202142Y-100377714D01*
X156297380Y-101234857D02*
X157297380Y-101568190D01*
X156297380Y-101901523D01*
X151265000Y-99822095D02*
X151217380Y-99726857D01*
X151217380Y-99584000D01*
X151265000Y-99441142D01*
X151360238Y-99345904D01*
X151455476Y-99298285D01*
X151645952Y-99250666D01*
X151788809Y-99250666D01*
X151979285Y-99298285D01*
X152074523Y-99345904D01*
X152169761Y-99441142D01*
X152217380Y-99584000D01*
X152217380Y-99679238D01*
X152169761Y-99822095D01*
X152122142Y-99869714D01*
X151788809Y-99869714D01*
X151788809Y-99679238D01*
X152217380Y-100298285D02*
X151217380Y-100298285D01*
X152217380Y-100869714D01*
X151217380Y-100869714D01*
X152217380Y-101345904D02*
X151217380Y-101345904D01*
X151217380Y-101584000D01*
X151265000Y-101726857D01*
X151360238Y-101822095D01*
X151455476Y-101869714D01*
X151645952Y-101917333D01*
X151788809Y-101917333D01*
X151979285Y-101869714D01*
X152074523Y-101822095D01*
X152169761Y-101726857D01*
X152217380Y-101584000D01*
X152217380Y-101345904D01*
D11*
%TO.C,SYM1*%
G36*
X161584410Y-105945152D02*
G01*
X161662954Y-105944722D01*
X161719798Y-105943558D01*
X161758605Y-105941293D01*
X161783038Y-105937560D01*
X161796762Y-105931994D01*
X161803440Y-105924227D01*
X161806736Y-105913895D01*
X161807056Y-105912557D01*
X161812062Y-105888421D01*
X161821329Y-105840799D01*
X161833892Y-105774759D01*
X161848787Y-105695372D01*
X161865051Y-105607704D01*
X161865619Y-105604625D01*
X161881910Y-105518711D01*
X161897152Y-105442804D01*
X161910361Y-105381455D01*
X161920554Y-105339218D01*
X161926748Y-105320645D01*
X161927043Y-105320316D01*
X161945288Y-105311247D01*
X161982905Y-105296133D01*
X162031771Y-105278238D01*
X162032043Y-105278142D01*
X162093593Y-105255007D01*
X162166157Y-105225535D01*
X162234557Y-105195903D01*
X162237794Y-105194438D01*
X162349202Y-105143874D01*
X162595899Y-105312340D01*
X162671577Y-105363697D01*
X162740131Y-105409611D01*
X162797588Y-105447470D01*
X162839976Y-105474663D01*
X162863325Y-105488579D01*
X162865542Y-105489611D01*
X162882510Y-105485016D01*
X162914201Y-105462845D01*
X162961852Y-105422053D01*
X163026698Y-105361595D01*
X163092897Y-105297273D01*
X163156714Y-105233888D01*
X163213829Y-105176049D01*
X163260805Y-105127325D01*
X163294203Y-105091290D01*
X163310585Y-105071516D01*
X163311194Y-105070498D01*
X163313005Y-105056928D01*
X163306183Y-105034767D01*
X163289040Y-105001022D01*
X163259893Y-104952700D01*
X163217055Y-104886808D01*
X163159948Y-104801983D01*
X163109266Y-104727323D01*
X163063961Y-104660360D01*
X163026650Y-104604984D01*
X162999952Y-104565080D01*
X162986485Y-104544538D01*
X162985637Y-104543144D01*
X162987281Y-104523462D01*
X162999745Y-104485207D01*
X163020548Y-104435611D01*
X163027962Y-104419772D01*
X163060314Y-104349210D01*
X163094828Y-104269147D01*
X163122865Y-104199871D01*
X163143068Y-104148455D01*
X163159115Y-104109381D01*
X163168388Y-104088959D01*
X163169541Y-104087386D01*
X163186596Y-104084779D01*
X163226798Y-104077637D01*
X163284802Y-104066977D01*
X163355263Y-104053815D01*
X163432835Y-104039167D01*
X163512172Y-104024051D01*
X163587931Y-104009482D01*
X163654764Y-103996478D01*
X163707328Y-103986055D01*
X163740276Y-103979230D01*
X163748357Y-103977301D01*
X163756705Y-103972538D01*
X163763006Y-103961782D01*
X163767545Y-103941402D01*
X163770604Y-103907766D01*
X163772467Y-103857245D01*
X163773418Y-103786208D01*
X163773740Y-103691024D01*
X163773757Y-103652008D01*
X163773757Y-103334701D01*
X163697557Y-103319661D01*
X163655163Y-103311505D01*
X163591900Y-103299601D01*
X163515462Y-103285384D01*
X163433543Y-103270290D01*
X163410900Y-103266145D01*
X163335306Y-103251447D01*
X163269453Y-103236995D01*
X163218866Y-103224125D01*
X163189074Y-103214178D01*
X163184112Y-103211213D01*
X163171926Y-103190217D01*
X163154453Y-103149533D01*
X163135077Y-103097178D01*
X163131234Y-103085900D01*
X163105839Y-103015977D01*
X163074317Y-102937082D01*
X163043469Y-102866234D01*
X163043317Y-102865905D01*
X162991947Y-102754767D01*
X163160899Y-102506247D01*
X163329852Y-102257728D01*
X163112929Y-102040442D01*
X163047319Y-101975774D01*
X162987479Y-101918767D01*
X162936767Y-101872467D01*
X162898546Y-101839916D01*
X162876175Y-101824157D01*
X162872966Y-101823157D01*
X162854126Y-101831031D01*
X162815680Y-101852922D01*
X162761830Y-101886233D01*
X162696776Y-101928369D01*
X162626440Y-101975557D01*
X162555055Y-102023690D01*
X162491408Y-102065572D01*
X162439541Y-102098629D01*
X162403495Y-102120282D01*
X162387367Y-102127957D01*
X162367689Y-102121463D01*
X162330375Y-102104350D01*
X162283121Y-102080174D01*
X162278112Y-102077487D01*
X162214477Y-102045573D01*
X162170841Y-102029921D01*
X162143702Y-102029755D01*
X162129557Y-102044296D01*
X162129475Y-102044500D01*
X162122405Y-102061721D01*
X162105542Y-102102601D01*
X162080195Y-102163975D01*
X162047671Y-102242681D01*
X162009278Y-102335553D01*
X161966322Y-102439428D01*
X161924722Y-102539998D01*
X161879004Y-102650984D01*
X161837026Y-102753797D01*
X161800048Y-102845285D01*
X161769327Y-102922299D01*
X161746122Y-102981685D01*
X161731690Y-103020291D01*
X161727243Y-103034700D01*
X161738396Y-103051228D01*
X161767569Y-103077570D01*
X161806471Y-103106613D01*
X161917257Y-103198461D01*
X162003851Y-103303741D01*
X162065216Y-103420234D01*
X162100315Y-103545724D01*
X162108108Y-103677993D01*
X162102443Y-103739043D01*
X162071578Y-103865705D01*
X162018420Y-103977559D01*
X161946267Y-104073499D01*
X161858417Y-104152424D01*
X161758165Y-104213230D01*
X161648810Y-104254813D01*
X161533647Y-104276072D01*
X161415975Y-104275901D01*
X161299090Y-104253199D01*
X161186289Y-104206862D01*
X161080869Y-104135787D01*
X161036868Y-104095589D01*
X160952479Y-103992371D01*
X160893722Y-103879575D01*
X160860204Y-103760490D01*
X160851535Y-103638405D01*
X160867323Y-103516607D01*
X160907178Y-103398384D01*
X160970707Y-103287025D01*
X161057521Y-103185816D01*
X161154529Y-103106613D01*
X161194937Y-103076338D01*
X161223482Y-103050281D01*
X161233757Y-103034675D01*
X161228377Y-103017657D01*
X161213075Y-102977000D01*
X161189112Y-102915858D01*
X161157744Y-102837381D01*
X161120232Y-102744720D01*
X161077833Y-102641028D01*
X161036163Y-102539974D01*
X160990190Y-102428893D01*
X160947607Y-102325959D01*
X160909721Y-102234335D01*
X160877840Y-102157184D01*
X160853271Y-102097669D01*
X160837320Y-102058956D01*
X160831410Y-102044500D01*
X160817448Y-102029815D01*
X160790440Y-102029858D01*
X160746913Y-102045401D01*
X160683390Y-102077216D01*
X160682888Y-102077487D01*
X160635060Y-102102177D01*
X160596397Y-102120162D01*
X160574595Y-102127886D01*
X160573633Y-102127957D01*
X160557221Y-102120122D01*
X160520987Y-102098335D01*
X160468974Y-102065172D01*
X160405225Y-102023209D01*
X160334560Y-101975557D01*
X160262616Y-101927309D01*
X160197774Y-101885349D01*
X160144235Y-101852273D01*
X160106197Y-101830679D01*
X160088033Y-101823157D01*
X160071308Y-101833043D01*
X160037680Y-101860674D01*
X159990510Y-101903005D01*
X159933158Y-101956995D01*
X159868984Y-102019601D01*
X159847997Y-102040517D01*
X159630999Y-102257877D01*
X159796168Y-102500280D01*
X159846364Y-102574719D01*
X159890419Y-102641528D01*
X159925862Y-102696835D01*
X159950219Y-102736771D01*
X159961022Y-102757464D01*
X159961338Y-102758937D01*
X159955643Y-102778442D01*
X159940326Y-102817678D01*
X159918037Y-102870070D01*
X159902393Y-102905145D01*
X159873141Y-102972299D01*
X159845594Y-103040142D01*
X159824237Y-103097466D01*
X159818435Y-103114928D01*
X159801952Y-103161562D01*
X159785840Y-103197595D01*
X159776990Y-103211213D01*
X159757460Y-103219548D01*
X159714834Y-103231363D01*
X159654645Y-103245319D01*
X159582422Y-103260078D01*
X159550100Y-103266145D01*
X159468022Y-103281227D01*
X159389295Y-103295831D01*
X159321609Y-103308520D01*
X159272660Y-103317858D01*
X159263443Y-103319661D01*
X159187243Y-103334701D01*
X159187243Y-103652008D01*
X159187414Y-103756346D01*
X159188116Y-103835287D01*
X159189634Y-103892462D01*
X159192249Y-103931501D01*
X159196246Y-103956035D01*
X159201909Y-103969695D01*
X159209520Y-103976111D01*
X159212643Y-103977301D01*
X159231478Y-103981520D01*
X159273088Y-103989938D01*
X159332130Y-104001539D01*
X159403257Y-104015305D01*
X159481125Y-104030220D01*
X159560387Y-104045268D01*
X159635698Y-104059431D01*
X159701713Y-104071694D01*
X159753087Y-104081039D01*
X159784475Y-104086450D01*
X159791459Y-104087386D01*
X159797785Y-104099904D01*
X159811790Y-104133254D01*
X159830855Y-104181123D01*
X159838134Y-104199871D01*
X159867496Y-104272305D01*
X159902071Y-104352330D01*
X159933037Y-104419772D01*
X159955823Y-104471341D01*
X159970982Y-104513715D01*
X159976042Y-104539666D01*
X159975236Y-104543144D01*
X159964541Y-104559564D01*
X159940120Y-104596083D01*
X159904595Y-104648813D01*
X159860587Y-104713865D01*
X159810717Y-104787349D01*
X159800856Y-104801855D01*
X159742992Y-104887796D01*
X159700456Y-104953239D01*
X159671554Y-105001196D01*
X159654590Y-105034680D01*
X159647867Y-105056705D01*
X159649690Y-105070283D01*
X159649736Y-105070369D01*
X159664086Y-105088203D01*
X159695823Y-105122683D01*
X159741510Y-105170232D01*
X159797704Y-105227278D01*
X159860968Y-105290245D01*
X159868102Y-105297273D01*
X159947830Y-105374480D01*
X160009357Y-105431170D01*
X160053921Y-105468390D01*
X160082757Y-105487185D01*
X160095458Y-105489611D01*
X160113994Y-105479029D01*
X160152461Y-105454584D01*
X160206886Y-105418888D01*
X160273298Y-105374553D01*
X160347725Y-105324189D01*
X160365101Y-105312340D01*
X160611797Y-105143874D01*
X160723206Y-105194438D01*
X160790957Y-105223905D01*
X160863683Y-105253541D01*
X160926203Y-105277170D01*
X160928957Y-105278142D01*
X160977860Y-105296043D01*
X161015557Y-105311180D01*
X161033925Y-105320290D01*
X161033956Y-105320316D01*
X161039785Y-105336783D01*
X161049692Y-105377281D01*
X161062695Y-105437258D01*
X161077809Y-105512160D01*
X161094052Y-105597436D01*
X161095381Y-105604625D01*
X161111675Y-105692486D01*
X161126633Y-105772240D01*
X161139291Y-105838819D01*
X161148686Y-105887153D01*
X161153854Y-105912175D01*
X161153944Y-105912557D01*
X161157089Y-105923201D01*
X161163204Y-105931238D01*
X161175953Y-105937033D01*
X161199000Y-105940953D01*
X161236009Y-105943365D01*
X161290644Y-105944635D01*
X161366567Y-105945129D01*
X161467444Y-105945214D01*
X161480500Y-105945214D01*
X161584410Y-105945152D01*
G37*
X161584410Y-105945152D02*
X161662954Y-105944722D01*
X161719798Y-105943558D01*
X161758605Y-105941293D01*
X161783038Y-105937560D01*
X161796762Y-105931994D01*
X161803440Y-105924227D01*
X161806736Y-105913895D01*
X161807056Y-105912557D01*
X161812062Y-105888421D01*
X161821329Y-105840799D01*
X161833892Y-105774759D01*
X161848787Y-105695372D01*
X161865051Y-105607704D01*
X161865619Y-105604625D01*
X161881910Y-105518711D01*
X161897152Y-105442804D01*
X161910361Y-105381455D01*
X161920554Y-105339218D01*
X161926748Y-105320645D01*
X161927043Y-105320316D01*
X161945288Y-105311247D01*
X161982905Y-105296133D01*
X162031771Y-105278238D01*
X162032043Y-105278142D01*
X162093593Y-105255007D01*
X162166157Y-105225535D01*
X162234557Y-105195903D01*
X162237794Y-105194438D01*
X162349202Y-105143874D01*
X162595899Y-105312340D01*
X162671577Y-105363697D01*
X162740131Y-105409611D01*
X162797588Y-105447470D01*
X162839976Y-105474663D01*
X162863325Y-105488579D01*
X162865542Y-105489611D01*
X162882510Y-105485016D01*
X162914201Y-105462845D01*
X162961852Y-105422053D01*
X163026698Y-105361595D01*
X163092897Y-105297273D01*
X163156714Y-105233888D01*
X163213829Y-105176049D01*
X163260805Y-105127325D01*
X163294203Y-105091290D01*
X163310585Y-105071516D01*
X163311194Y-105070498D01*
X163313005Y-105056928D01*
X163306183Y-105034767D01*
X163289040Y-105001022D01*
X163259893Y-104952700D01*
X163217055Y-104886808D01*
X163159948Y-104801983D01*
X163109266Y-104727323D01*
X163063961Y-104660360D01*
X163026650Y-104604984D01*
X162999952Y-104565080D01*
X162986485Y-104544538D01*
X162985637Y-104543144D01*
X162987281Y-104523462D01*
X162999745Y-104485207D01*
X163020548Y-104435611D01*
X163027962Y-104419772D01*
X163060314Y-104349210D01*
X163094828Y-104269147D01*
X163122865Y-104199871D01*
X163143068Y-104148455D01*
X163159115Y-104109381D01*
X163168388Y-104088959D01*
X163169541Y-104087386D01*
X163186596Y-104084779D01*
X163226798Y-104077637D01*
X163284802Y-104066977D01*
X163355263Y-104053815D01*
X163432835Y-104039167D01*
X163512172Y-104024051D01*
X163587931Y-104009482D01*
X163654764Y-103996478D01*
X163707328Y-103986055D01*
X163740276Y-103979230D01*
X163748357Y-103977301D01*
X163756705Y-103972538D01*
X163763006Y-103961782D01*
X163767545Y-103941402D01*
X163770604Y-103907766D01*
X163772467Y-103857245D01*
X163773418Y-103786208D01*
X163773740Y-103691024D01*
X163773757Y-103652008D01*
X163773757Y-103334701D01*
X163697557Y-103319661D01*
X163655163Y-103311505D01*
X163591900Y-103299601D01*
X163515462Y-103285384D01*
X163433543Y-103270290D01*
X163410900Y-103266145D01*
X163335306Y-103251447D01*
X163269453Y-103236995D01*
X163218866Y-103224125D01*
X163189074Y-103214178D01*
X163184112Y-103211213D01*
X163171926Y-103190217D01*
X163154453Y-103149533D01*
X163135077Y-103097178D01*
X163131234Y-103085900D01*
X163105839Y-103015977D01*
X163074317Y-102937082D01*
X163043469Y-102866234D01*
X163043317Y-102865905D01*
X162991947Y-102754767D01*
X163160899Y-102506247D01*
X163329852Y-102257728D01*
X163112929Y-102040442D01*
X163047319Y-101975774D01*
X162987479Y-101918767D01*
X162936767Y-101872467D01*
X162898546Y-101839916D01*
X162876175Y-101824157D01*
X162872966Y-101823157D01*
X162854126Y-101831031D01*
X162815680Y-101852922D01*
X162761830Y-101886233D01*
X162696776Y-101928369D01*
X162626440Y-101975557D01*
X162555055Y-102023690D01*
X162491408Y-102065572D01*
X162439541Y-102098629D01*
X162403495Y-102120282D01*
X162387367Y-102127957D01*
X162367689Y-102121463D01*
X162330375Y-102104350D01*
X162283121Y-102080174D01*
X162278112Y-102077487D01*
X162214477Y-102045573D01*
X162170841Y-102029921D01*
X162143702Y-102029755D01*
X162129557Y-102044296D01*
X162129475Y-102044500D01*
X162122405Y-102061721D01*
X162105542Y-102102601D01*
X162080195Y-102163975D01*
X162047671Y-102242681D01*
X162009278Y-102335553D01*
X161966322Y-102439428D01*
X161924722Y-102539998D01*
X161879004Y-102650984D01*
X161837026Y-102753797D01*
X161800048Y-102845285D01*
X161769327Y-102922299D01*
X161746122Y-102981685D01*
X161731690Y-103020291D01*
X161727243Y-103034700D01*
X161738396Y-103051228D01*
X161767569Y-103077570D01*
X161806471Y-103106613D01*
X161917257Y-103198461D01*
X162003851Y-103303741D01*
X162065216Y-103420234D01*
X162100315Y-103545724D01*
X162108108Y-103677993D01*
X162102443Y-103739043D01*
X162071578Y-103865705D01*
X162018420Y-103977559D01*
X161946267Y-104073499D01*
X161858417Y-104152424D01*
X161758165Y-104213230D01*
X161648810Y-104254813D01*
X161533647Y-104276072D01*
X161415975Y-104275901D01*
X161299090Y-104253199D01*
X161186289Y-104206862D01*
X161080869Y-104135787D01*
X161036868Y-104095589D01*
X160952479Y-103992371D01*
X160893722Y-103879575D01*
X160860204Y-103760490D01*
X160851535Y-103638405D01*
X160867323Y-103516607D01*
X160907178Y-103398384D01*
X160970707Y-103287025D01*
X161057521Y-103185816D01*
X161154529Y-103106613D01*
X161194937Y-103076338D01*
X161223482Y-103050281D01*
X161233757Y-103034675D01*
X161228377Y-103017657D01*
X161213075Y-102977000D01*
X161189112Y-102915858D01*
X161157744Y-102837381D01*
X161120232Y-102744720D01*
X161077833Y-102641028D01*
X161036163Y-102539974D01*
X160990190Y-102428893D01*
X160947607Y-102325959D01*
X160909721Y-102234335D01*
X160877840Y-102157184D01*
X160853271Y-102097669D01*
X160837320Y-102058956D01*
X160831410Y-102044500D01*
X160817448Y-102029815D01*
X160790440Y-102029858D01*
X160746913Y-102045401D01*
X160683390Y-102077216D01*
X160682888Y-102077487D01*
X160635060Y-102102177D01*
X160596397Y-102120162D01*
X160574595Y-102127886D01*
X160573633Y-102127957D01*
X160557221Y-102120122D01*
X160520987Y-102098335D01*
X160468974Y-102065172D01*
X160405225Y-102023209D01*
X160334560Y-101975557D01*
X160262616Y-101927309D01*
X160197774Y-101885349D01*
X160144235Y-101852273D01*
X160106197Y-101830679D01*
X160088033Y-101823157D01*
X160071308Y-101833043D01*
X160037680Y-101860674D01*
X159990510Y-101903005D01*
X159933158Y-101956995D01*
X159868984Y-102019601D01*
X159847997Y-102040517D01*
X159630999Y-102257877D01*
X159796168Y-102500280D01*
X159846364Y-102574719D01*
X159890419Y-102641528D01*
X159925862Y-102696835D01*
X159950219Y-102736771D01*
X159961022Y-102757464D01*
X159961338Y-102758937D01*
X159955643Y-102778442D01*
X159940326Y-102817678D01*
X159918037Y-102870070D01*
X159902393Y-102905145D01*
X159873141Y-102972299D01*
X159845594Y-103040142D01*
X159824237Y-103097466D01*
X159818435Y-103114928D01*
X159801952Y-103161562D01*
X159785840Y-103197595D01*
X159776990Y-103211213D01*
X159757460Y-103219548D01*
X159714834Y-103231363D01*
X159654645Y-103245319D01*
X159582422Y-103260078D01*
X159550100Y-103266145D01*
X159468022Y-103281227D01*
X159389295Y-103295831D01*
X159321609Y-103308520D01*
X159272660Y-103317858D01*
X159263443Y-103319661D01*
X159187243Y-103334701D01*
X159187243Y-103652008D01*
X159187414Y-103756346D01*
X159188116Y-103835287D01*
X159189634Y-103892462D01*
X159192249Y-103931501D01*
X159196246Y-103956035D01*
X159201909Y-103969695D01*
X159209520Y-103976111D01*
X159212643Y-103977301D01*
X159231478Y-103981520D01*
X159273088Y-103989938D01*
X159332130Y-104001539D01*
X159403257Y-104015305D01*
X159481125Y-104030220D01*
X159560387Y-104045268D01*
X159635698Y-104059431D01*
X159701713Y-104071694D01*
X159753087Y-104081039D01*
X159784475Y-104086450D01*
X159791459Y-104087386D01*
X159797785Y-104099904D01*
X159811790Y-104133254D01*
X159830855Y-104181123D01*
X159838134Y-104199871D01*
X159867496Y-104272305D01*
X159902071Y-104352330D01*
X159933037Y-104419772D01*
X159955823Y-104471341D01*
X159970982Y-104513715D01*
X159976042Y-104539666D01*
X159975236Y-104543144D01*
X159964541Y-104559564D01*
X159940120Y-104596083D01*
X159904595Y-104648813D01*
X159860587Y-104713865D01*
X159810717Y-104787349D01*
X159800856Y-104801855D01*
X159742992Y-104887796D01*
X159700456Y-104953239D01*
X159671554Y-105001196D01*
X159654590Y-105034680D01*
X159647867Y-105056705D01*
X159649690Y-105070283D01*
X159649736Y-105070369D01*
X159664086Y-105088203D01*
X159695823Y-105122683D01*
X159741510Y-105170232D01*
X159797704Y-105227278D01*
X159860968Y-105290245D01*
X159868102Y-105297273D01*
X159947830Y-105374480D01*
X160009357Y-105431170D01*
X160053921Y-105468390D01*
X160082757Y-105487185D01*
X160095458Y-105489611D01*
X160113994Y-105479029D01*
X160152461Y-105454584D01*
X160206886Y-105418888D01*
X160273298Y-105374553D01*
X160347725Y-105324189D01*
X160365101Y-105312340D01*
X160611797Y-105143874D01*
X160723206Y-105194438D01*
X160790957Y-105223905D01*
X160863683Y-105253541D01*
X160926203Y-105277170D01*
X160928957Y-105278142D01*
X160977860Y-105296043D01*
X161015557Y-105311180D01*
X161033925Y-105320290D01*
X161033956Y-105320316D01*
X161039785Y-105336783D01*
X161049692Y-105377281D01*
X161062695Y-105437258D01*
X161077809Y-105512160D01*
X161094052Y-105597436D01*
X161095381Y-105604625D01*
X161111675Y-105692486D01*
X161126633Y-105772240D01*
X161139291Y-105838819D01*
X161148686Y-105887153D01*
X161153854Y-105912175D01*
X161153944Y-105912557D01*
X161157089Y-105923201D01*
X161163204Y-105931238D01*
X161175953Y-105937033D01*
X161199000Y-105940953D01*
X161236009Y-105943365D01*
X161290644Y-105944635D01*
X161366567Y-105945129D01*
X161467444Y-105945214D01*
X161480500Y-105945214D01*
X161584410Y-105945152D01*
G36*
X164634095Y-101220534D02*
G01*
X164691521Y-101183003D01*
X164719219Y-101149404D01*
X164741162Y-101088436D01*
X164742905Y-101040192D01*
X164738957Y-100975684D01*
X164590186Y-100910566D01*
X164517849Y-100877298D01*
X164470584Y-100850536D01*
X164446007Y-100827356D01*
X164441737Y-100804833D01*
X164455389Y-100780045D01*
X164470443Y-100763614D01*
X164514246Y-100737265D01*
X164561889Y-100735419D01*
X164605645Y-100755954D01*
X164637789Y-100796748D01*
X164643538Y-100811153D01*
X164671076Y-100856144D01*
X164702758Y-100875318D01*
X164746214Y-100891721D01*
X164746214Y-100829534D01*
X164742372Y-100787217D01*
X164727323Y-100751531D01*
X164695780Y-100710557D01*
X164691092Y-100705233D01*
X164656006Y-100668780D01*
X164625847Y-100649217D01*
X164588115Y-100640217D01*
X164556835Y-100637270D01*
X164500885Y-100636535D01*
X164461055Y-100645840D01*
X164436208Y-100659654D01*
X164397156Y-100690033D01*
X164370125Y-100722887D01*
X164353017Y-100764206D01*
X164343738Y-100819979D01*
X164340193Y-100896195D01*
X164339910Y-100934878D01*
X164340872Y-100981253D01*
X164428507Y-100981253D01*
X164429523Y-100956374D01*
X164432056Y-100952300D01*
X164448774Y-100957835D01*
X164484749Y-100972483D01*
X164532831Y-100993310D01*
X164542886Y-100997786D01*
X164603652Y-101028686D01*
X164637132Y-101055843D01*
X164644490Y-101081280D01*
X164626891Y-101107019D01*
X164612356Y-101118391D01*
X164559910Y-101141136D01*
X164510822Y-101137378D01*
X164469727Y-101109616D01*
X164441258Y-101060348D01*
X164432131Y-101021243D01*
X164428507Y-100981253D01*
X164340872Y-100981253D01*
X164341785Y-101025251D01*
X164348696Y-101092116D01*
X164362384Y-101140805D01*
X164384596Y-101176651D01*
X164417074Y-101204987D01*
X164431233Y-101214145D01*
X164495553Y-101237993D01*
X164565973Y-101239494D01*
X164634095Y-101220534D01*
G37*
X164634095Y-101220534D02*
X164691521Y-101183003D01*
X164719219Y-101149404D01*
X164741162Y-101088436D01*
X164742905Y-101040192D01*
X164738957Y-100975684D01*
X164590186Y-100910566D01*
X164517849Y-100877298D01*
X164470584Y-100850536D01*
X164446007Y-100827356D01*
X164441737Y-100804833D01*
X164455389Y-100780045D01*
X164470443Y-100763614D01*
X164514246Y-100737265D01*
X164561889Y-100735419D01*
X164605645Y-100755954D01*
X164637789Y-100796748D01*
X164643538Y-100811153D01*
X164671076Y-100856144D01*
X164702758Y-100875318D01*
X164746214Y-100891721D01*
X164746214Y-100829534D01*
X164742372Y-100787217D01*
X164727323Y-100751531D01*
X164695780Y-100710557D01*
X164691092Y-100705233D01*
X164656006Y-100668780D01*
X164625847Y-100649217D01*
X164588115Y-100640217D01*
X164556835Y-100637270D01*
X164500885Y-100636535D01*
X164461055Y-100645840D01*
X164436208Y-100659654D01*
X164397156Y-100690033D01*
X164370125Y-100722887D01*
X164353017Y-100764206D01*
X164343738Y-100819979D01*
X164340193Y-100896195D01*
X164339910Y-100934878D01*
X164340872Y-100981253D01*
X164428507Y-100981253D01*
X164429523Y-100956374D01*
X164432056Y-100952300D01*
X164448774Y-100957835D01*
X164484749Y-100972483D01*
X164532831Y-100993310D01*
X164542886Y-100997786D01*
X164603652Y-101028686D01*
X164637132Y-101055843D01*
X164644490Y-101081280D01*
X164626891Y-101107019D01*
X164612356Y-101118391D01*
X164559910Y-101141136D01*
X164510822Y-101137378D01*
X164469727Y-101109616D01*
X164441258Y-101060348D01*
X164432131Y-101021243D01*
X164428507Y-100981253D01*
X164340872Y-100981253D01*
X164341785Y-101025251D01*
X164348696Y-101092116D01*
X164362384Y-101140805D01*
X164384596Y-101176651D01*
X164417074Y-101204987D01*
X164431233Y-101214145D01*
X164495553Y-101237993D01*
X164565973Y-101239494D01*
X164634095Y-101220534D01*
G36*
X164133100Y-101228748D02*
G01*
X164150448Y-101221166D01*
X164191856Y-101188372D01*
X164227265Y-101140953D01*
X164249164Y-101090349D01*
X164252729Y-101065402D01*
X164240779Y-101030573D01*
X164214567Y-101012143D01*
X164186464Y-101000984D01*
X164173595Y-100998928D01*
X164167329Y-101013851D01*
X164154956Y-101046325D01*
X164149528Y-101060998D01*
X164119090Y-101111756D01*
X164075020Y-101137073D01*
X164018510Y-101136294D01*
X164014325Y-101135297D01*
X163984155Y-101120993D01*
X163961976Y-101093107D01*
X163946827Y-101048213D01*
X163937750Y-100982885D01*
X163933786Y-100893696D01*
X163933414Y-100846239D01*
X163933230Y-100771429D01*
X163932022Y-100720431D01*
X163928809Y-100688029D01*
X163922609Y-100669005D01*
X163912440Y-100658144D01*
X163897319Y-100650228D01*
X163896446Y-100649830D01*
X163867328Y-100637519D01*
X163852903Y-100632986D01*
X163850686Y-100646691D01*
X163848789Y-100684575D01*
X163847347Y-100741785D01*
X163846498Y-100813473D01*
X163846329Y-100865935D01*
X163847192Y-100967453D01*
X163850570Y-101044468D01*
X163857642Y-101101477D01*
X163869588Y-101142974D01*
X163887590Y-101173457D01*
X163912827Y-101197420D01*
X163937747Y-101214145D01*
X163997671Y-101236403D01*
X164067411Y-101241424D01*
X164133100Y-101228748D01*
G37*
X164133100Y-101228748D02*
X164150448Y-101221166D01*
X164191856Y-101188372D01*
X164227265Y-101140953D01*
X164249164Y-101090349D01*
X164252729Y-101065402D01*
X164240779Y-101030573D01*
X164214567Y-101012143D01*
X164186464Y-101000984D01*
X164173595Y-100998928D01*
X164167329Y-101013851D01*
X164154956Y-101046325D01*
X164149528Y-101060998D01*
X164119090Y-101111756D01*
X164075020Y-101137073D01*
X164018510Y-101136294D01*
X164014325Y-101135297D01*
X163984155Y-101120993D01*
X163961976Y-101093107D01*
X163946827Y-101048213D01*
X163937750Y-100982885D01*
X163933786Y-100893696D01*
X163933414Y-100846239D01*
X163933230Y-100771429D01*
X163932022Y-100720431D01*
X163928809Y-100688029D01*
X163922609Y-100669005D01*
X163912440Y-100658144D01*
X163897319Y-100650228D01*
X163896446Y-100649830D01*
X163867328Y-100637519D01*
X163852903Y-100632986D01*
X163850686Y-100646691D01*
X163848789Y-100684575D01*
X163847347Y-100741785D01*
X163846498Y-100813473D01*
X163846329Y-100865935D01*
X163847192Y-100967453D01*
X163850570Y-101044468D01*
X163857642Y-101101477D01*
X163869588Y-101142974D01*
X163887590Y-101173457D01*
X163912827Y-101197420D01*
X163937747Y-101214145D01*
X163997671Y-101236403D01*
X164067411Y-101241424D01*
X164133100Y-101228748D01*
G36*
X163625376Y-101231165D02*
G01*
X163667167Y-101212156D01*
X163699969Y-101189122D01*
X163724003Y-101163367D01*
X163740597Y-101130142D01*
X163751077Y-101084700D01*
X163756771Y-101022293D01*
X163759007Y-100938173D01*
X163759243Y-100882779D01*
X163759243Y-100666674D01*
X163722274Y-100649830D01*
X163693156Y-100637519D01*
X163678731Y-100632986D01*
X163675972Y-100646475D01*
X163673782Y-100682847D01*
X163672442Y-100735958D01*
X163672157Y-100778128D01*
X163670934Y-100839053D01*
X163667636Y-100887385D01*
X163662821Y-100916982D01*
X163658996Y-100923271D01*
X163633283Y-100916848D01*
X163592918Y-100900375D01*
X163546179Y-100878042D01*
X163501345Y-100854043D01*
X163466693Y-100832570D01*
X163450502Y-100817815D01*
X163450438Y-100817655D01*
X163451830Y-100790348D01*
X163464318Y-100764281D01*
X163486243Y-100743108D01*
X163518243Y-100736026D01*
X163545592Y-100736851D01*
X163584326Y-100737458D01*
X163604658Y-100728384D01*
X163616869Y-100704408D01*
X163618409Y-100699887D01*
X163623703Y-100665694D01*
X163609547Y-100644932D01*
X163572648Y-100635038D01*
X163532789Y-100633208D01*
X163461062Y-100646773D01*
X163423932Y-100666145D01*
X163378076Y-100711655D01*
X163353756Y-100767517D01*
X163351573Y-100826543D01*
X163372129Y-100881547D01*
X163403049Y-100916014D01*
X163433920Y-100935311D01*
X163482442Y-100959741D01*
X163538985Y-100984515D01*
X163548410Y-100988301D01*
X163610519Y-101015709D01*
X163646322Y-101039866D01*
X163657837Y-101063881D01*
X163647080Y-101090865D01*
X163628614Y-101111957D01*
X163584969Y-101137928D01*
X163536946Y-101139876D01*
X163492906Y-101119863D01*
X163461209Y-101079949D01*
X163457049Y-101069652D01*
X163432827Y-101031776D01*
X163397465Y-101003658D01*
X163352843Y-100980583D01*
X163352843Y-101046015D01*
X163355469Y-101085994D01*
X163366730Y-101117503D01*
X163391699Y-101151122D01*
X163415669Y-101177016D01*
X163452941Y-101213683D01*
X163481901Y-101233379D01*
X163513005Y-101241280D01*
X163548213Y-101242586D01*
X163625376Y-101231165D01*
G37*
X163625376Y-101231165D02*
X163667167Y-101212156D01*
X163699969Y-101189122D01*
X163724003Y-101163367D01*
X163740597Y-101130142D01*
X163751077Y-101084700D01*
X163756771Y-101022293D01*
X163759007Y-100938173D01*
X163759243Y-100882779D01*
X163759243Y-100666674D01*
X163722274Y-100649830D01*
X163693156Y-100637519D01*
X163678731Y-100632986D01*
X163675972Y-100646475D01*
X163673782Y-100682847D01*
X163672442Y-100735958D01*
X163672157Y-100778128D01*
X163670934Y-100839053D01*
X163667636Y-100887385D01*
X163662821Y-100916982D01*
X163658996Y-100923271D01*
X163633283Y-100916848D01*
X163592918Y-100900375D01*
X163546179Y-100878042D01*
X163501345Y-100854043D01*
X163466693Y-100832570D01*
X163450502Y-100817815D01*
X163450438Y-100817655D01*
X163451830Y-100790348D01*
X163464318Y-100764281D01*
X163486243Y-100743108D01*
X163518243Y-100736026D01*
X163545592Y-100736851D01*
X163584326Y-100737458D01*
X163604658Y-100728384D01*
X163616869Y-100704408D01*
X163618409Y-100699887D01*
X163623703Y-100665694D01*
X163609547Y-100644932D01*
X163572648Y-100635038D01*
X163532789Y-100633208D01*
X163461062Y-100646773D01*
X163423932Y-100666145D01*
X163378076Y-100711655D01*
X163353756Y-100767517D01*
X163351573Y-100826543D01*
X163372129Y-100881547D01*
X163403049Y-100916014D01*
X163433920Y-100935311D01*
X163482442Y-100959741D01*
X163538985Y-100984515D01*
X163548410Y-100988301D01*
X163610519Y-101015709D01*
X163646322Y-101039866D01*
X163657837Y-101063881D01*
X163647080Y-101090865D01*
X163628614Y-101111957D01*
X163584969Y-101137928D01*
X163536946Y-101139876D01*
X163492906Y-101119863D01*
X163461209Y-101079949D01*
X163457049Y-101069652D01*
X163432827Y-101031776D01*
X163397465Y-101003658D01*
X163352843Y-100980583D01*
X163352843Y-101046015D01*
X163355469Y-101085994D01*
X163366730Y-101117503D01*
X163391699Y-101151122D01*
X163415669Y-101177016D01*
X163452941Y-101213683D01*
X163481901Y-101233379D01*
X163513005Y-101241280D01*
X163548213Y-101242586D01*
X163625376Y-101231165D01*
G36*
X163260333Y-101228837D02*
G01*
X163262548Y-101190650D01*
X163264284Y-101132614D01*
X163265399Y-101059320D01*
X163265757Y-100982445D01*
X163265757Y-100722304D01*
X163219826Y-100676373D01*
X163188175Y-100648071D01*
X163160390Y-100636607D01*
X163122415Y-100637332D01*
X163107340Y-100639179D01*
X163060226Y-100644552D01*
X163021256Y-100647631D01*
X163011757Y-100647915D01*
X162979733Y-100646055D01*
X162933932Y-100641386D01*
X162916174Y-100639179D01*
X162872557Y-100635765D01*
X162843245Y-100643180D01*
X162814180Y-100666073D01*
X162803688Y-100676373D01*
X162757757Y-100722304D01*
X162757757Y-101208898D01*
X162794726Y-101225742D01*
X162826559Y-101238218D01*
X162845183Y-101242586D01*
X162849958Y-101228782D01*
X162854421Y-101190214D01*
X162858275Y-101131144D01*
X162861222Y-101055837D01*
X162862643Y-100992214D01*
X162866614Y-100741843D01*
X162901259Y-100736944D01*
X162932768Y-100740369D01*
X162948208Y-100751459D01*
X162952523Y-100772192D01*
X162956208Y-100816355D01*
X162958969Y-100878354D01*
X162960512Y-100952591D01*
X162960735Y-100990794D01*
X162960957Y-101210717D01*
X163006666Y-101226651D01*
X163039018Y-101237485D01*
X163056615Y-101242538D01*
X163057123Y-101242586D01*
X163058888Y-101228852D01*
X163060829Y-101190770D01*
X163062782Y-101133018D01*
X163064584Y-101060273D01*
X163065843Y-100992214D01*
X163069814Y-100741843D01*
X163156900Y-100741843D01*
X163160896Y-100970260D01*
X163164892Y-101198678D01*
X163207347Y-101220632D01*
X163238692Y-101235707D01*
X163257244Y-101242549D01*
X163257779Y-101242586D01*
X163260333Y-101228837D01*
G37*
X163260333Y-101228837D02*
X163262548Y-101190650D01*
X163264284Y-101132614D01*
X163265399Y-101059320D01*
X163265757Y-100982445D01*
X163265757Y-100722304D01*
X163219826Y-100676373D01*
X163188175Y-100648071D01*
X163160390Y-100636607D01*
X163122415Y-100637332D01*
X163107340Y-100639179D01*
X163060226Y-100644552D01*
X163021256Y-100647631D01*
X163011757Y-100647915D01*
X162979733Y-100646055D01*
X162933932Y-100641386D01*
X162916174Y-100639179D01*
X162872557Y-100635765D01*
X162843245Y-100643180D01*
X162814180Y-100666073D01*
X162803688Y-100676373D01*
X162757757Y-100722304D01*
X162757757Y-101208898D01*
X162794726Y-101225742D01*
X162826559Y-101238218D01*
X162845183Y-101242586D01*
X162849958Y-101228782D01*
X162854421Y-101190214D01*
X162858275Y-101131144D01*
X162861222Y-101055837D01*
X162862643Y-100992214D01*
X162866614Y-100741843D01*
X162901259Y-100736944D01*
X162932768Y-100740369D01*
X162948208Y-100751459D01*
X162952523Y-100772192D01*
X162956208Y-100816355D01*
X162958969Y-100878354D01*
X162960512Y-100952591D01*
X162960735Y-100990794D01*
X162960957Y-101210717D01*
X163006666Y-101226651D01*
X163039018Y-101237485D01*
X163056615Y-101242538D01*
X163057123Y-101242586D01*
X163058888Y-101228852D01*
X163060829Y-101190770D01*
X163062782Y-101133018D01*
X163064584Y-101060273D01*
X163065843Y-100992214D01*
X163069814Y-100741843D01*
X163156900Y-100741843D01*
X163160896Y-100970260D01*
X163164892Y-101198678D01*
X163207347Y-101220632D01*
X163238692Y-101235707D01*
X163257244Y-101242549D01*
X163257779Y-101242586D01*
X163260333Y-101228837D01*
G36*
X162670617Y-101122142D02*
G01*
X162670433Y-101013663D01*
X162669719Y-100930213D01*
X162668175Y-100867796D01*
X162665501Y-100822415D01*
X162661394Y-100790071D01*
X162655555Y-100766767D01*
X162647682Y-100748505D01*
X162641721Y-100738082D01*
X162592355Y-100681555D01*
X162529764Y-100646123D01*
X162460513Y-100633410D01*
X162391168Y-100645037D01*
X162349875Y-100665932D01*
X162306525Y-100702078D01*
X162276981Y-100746224D01*
X162259155Y-100804038D01*
X162250963Y-100881187D01*
X162249802Y-100937786D01*
X162249958Y-100941853D01*
X162351357Y-100941853D01*
X162351976Y-100876950D01*
X162354814Y-100833986D01*
X162361340Y-100805878D01*
X162373023Y-100785547D01*
X162386983Y-100770212D01*
X162433865Y-100740610D01*
X162484201Y-100738081D01*
X162531776Y-100762795D01*
X162535479Y-100766144D01*
X162551283Y-100783565D01*
X162561193Y-100804291D01*
X162566558Y-100835138D01*
X162568728Y-100882923D01*
X162569071Y-100935752D01*
X162568327Y-101002119D01*
X162565248Y-101046394D01*
X162558561Y-101075491D01*
X162546996Y-101096327D01*
X162537513Y-101107393D01*
X162493460Y-101135302D01*
X162442724Y-101138657D01*
X162394296Y-101117341D01*
X162384950Y-101109427D01*
X162369040Y-101091853D01*
X162359110Y-101070913D01*
X162353778Y-101039718D01*
X162351663Y-100991378D01*
X162351357Y-100941853D01*
X162249958Y-100941853D01*
X162253310Y-101028932D01*
X162265226Y-101097414D01*
X162287635Y-101148900D01*
X162322624Y-101189057D01*
X162349875Y-101209639D01*
X162399407Y-101231875D01*
X162456816Y-101242196D01*
X162510182Y-101239433D01*
X162540043Y-101228288D01*
X162551761Y-101225117D01*
X162559537Y-101236943D01*
X162564965Y-101268634D01*
X162569071Y-101316907D01*
X162573567Y-101370671D01*
X162579813Y-101403018D01*
X162591176Y-101421515D01*
X162611028Y-101433730D01*
X162623500Y-101439138D01*
X162670671Y-101458899D01*
X162670617Y-101122142D01*
G37*
X162670617Y-101122142D02*
X162670433Y-101013663D01*
X162669719Y-100930213D01*
X162668175Y-100867796D01*
X162665501Y-100822415D01*
X162661394Y-100790071D01*
X162655555Y-100766767D01*
X162647682Y-100748505D01*
X162641721Y-100738082D01*
X162592355Y-100681555D01*
X162529764Y-100646123D01*
X162460513Y-100633410D01*
X162391168Y-100645037D01*
X162349875Y-100665932D01*
X162306525Y-100702078D01*
X162276981Y-100746224D01*
X162259155Y-100804038D01*
X162250963Y-100881187D01*
X162249802Y-100937786D01*
X162249958Y-100941853D01*
X162351357Y-100941853D01*
X162351976Y-100876950D01*
X162354814Y-100833986D01*
X162361340Y-100805878D01*
X162373023Y-100785547D01*
X162386983Y-100770212D01*
X162433865Y-100740610D01*
X162484201Y-100738081D01*
X162531776Y-100762795D01*
X162535479Y-100766144D01*
X162551283Y-100783565D01*
X162561193Y-100804291D01*
X162566558Y-100835138D01*
X162568728Y-100882923D01*
X162569071Y-100935752D01*
X162568327Y-101002119D01*
X162565248Y-101046394D01*
X162558561Y-101075491D01*
X162546996Y-101096327D01*
X162537513Y-101107393D01*
X162493460Y-101135302D01*
X162442724Y-101138657D01*
X162394296Y-101117341D01*
X162384950Y-101109427D01*
X162369040Y-101091853D01*
X162359110Y-101070913D01*
X162353778Y-101039718D01*
X162351663Y-100991378D01*
X162351357Y-100941853D01*
X162249958Y-100941853D01*
X162253310Y-101028932D01*
X162265226Y-101097414D01*
X162287635Y-101148900D01*
X162322624Y-101189057D01*
X162349875Y-101209639D01*
X162399407Y-101231875D01*
X162456816Y-101242196D01*
X162510182Y-101239433D01*
X162540043Y-101228288D01*
X162551761Y-101225117D01*
X162559537Y-101236943D01*
X162564965Y-101268634D01*
X162569071Y-101316907D01*
X162573567Y-101370671D01*
X162579813Y-101403018D01*
X162591176Y-101421515D01*
X162611028Y-101433730D01*
X162623500Y-101439138D01*
X162670671Y-101458899D01*
X162670617Y-101122142D01*
G36*
X162010426Y-101237745D02*
G01*
X162076358Y-101213416D01*
X162129773Y-101170383D01*
X162150664Y-101140091D01*
X162173439Y-101084506D01*
X162172966Y-101044314D01*
X162149062Y-101017283D01*
X162140217Y-101012687D01*
X162102030Y-100998356D01*
X162082528Y-101002028D01*
X162075922Y-101026093D01*
X162075586Y-101039386D01*
X162063492Y-101088290D01*
X162031971Y-101122501D01*
X161988159Y-101139024D01*
X161939195Y-101134866D01*
X161899394Y-101113273D01*
X161885950Y-101100956D01*
X161876421Y-101086013D01*
X161869985Y-101063425D01*
X161865817Y-101028172D01*
X161863097Y-100975234D01*
X161861002Y-100899593D01*
X161860460Y-100875643D01*
X161858481Y-100793710D01*
X161856231Y-100736045D01*
X161852857Y-100697892D01*
X161847506Y-100674496D01*
X161839324Y-100661102D01*
X161827459Y-100652955D01*
X161819862Y-100649356D01*
X161787602Y-100637048D01*
X161768611Y-100632986D01*
X161762336Y-100646552D01*
X161758506Y-100687566D01*
X161757100Y-100756501D01*
X161758098Y-100853831D01*
X161758408Y-100868843D01*
X161760601Y-100957641D01*
X161763193Y-101022481D01*
X161766882Y-101068433D01*
X161772364Y-101100565D01*
X161780335Y-101123947D01*
X161791493Y-101143648D01*
X161797330Y-101152090D01*
X161830796Y-101189443D01*
X161868227Y-101218497D01*
X161872809Y-101221033D01*
X161939926Y-101241057D01*
X162010426Y-101237745D01*
G37*
X162010426Y-101237745D02*
X162076358Y-101213416D01*
X162129773Y-101170383D01*
X162150664Y-101140091D01*
X162173439Y-101084506D01*
X162172966Y-101044314D01*
X162149062Y-101017283D01*
X162140217Y-101012687D01*
X162102030Y-100998356D01*
X162082528Y-101002028D01*
X162075922Y-101026093D01*
X162075586Y-101039386D01*
X162063492Y-101088290D01*
X162031971Y-101122501D01*
X161988159Y-101139024D01*
X161939195Y-101134866D01*
X161899394Y-101113273D01*
X161885950Y-101100956D01*
X161876421Y-101086013D01*
X161869985Y-101063425D01*
X161865817Y-101028172D01*
X161863097Y-100975234D01*
X161861002Y-100899593D01*
X161860460Y-100875643D01*
X161858481Y-100793710D01*
X161856231Y-100736045D01*
X161852857Y-100697892D01*
X161847506Y-100674496D01*
X161839324Y-100661102D01*
X161827459Y-100652955D01*
X161819862Y-100649356D01*
X161787602Y-100637048D01*
X161768611Y-100632986D01*
X161762336Y-100646552D01*
X161758506Y-100687566D01*
X161757100Y-100756501D01*
X161758098Y-100853831D01*
X161758408Y-100868843D01*
X161760601Y-100957641D01*
X161763193Y-101022481D01*
X161766882Y-101068433D01*
X161772364Y-101100565D01*
X161780335Y-101123947D01*
X161791493Y-101143648D01*
X161797330Y-101152090D01*
X161830796Y-101189443D01*
X161868227Y-101218497D01*
X161872809Y-101221033D01*
X161939926Y-101241057D01*
X162010426Y-101237745D01*
G36*
X161520244Y-101236532D02*
G01*
X161577116Y-101215413D01*
X161577767Y-101215007D01*
X161612940Y-101189120D01*
X161638907Y-101158867D01*
X161657170Y-101119442D01*
X161669232Y-101066038D01*
X161676596Y-100993849D01*
X161680764Y-100898068D01*
X161681129Y-100884422D01*
X161686376Y-100678658D01*
X161642216Y-100655822D01*
X161610263Y-100640390D01*
X161590970Y-100633077D01*
X161590078Y-100632986D01*
X161586739Y-100646478D01*
X161584087Y-100682874D01*
X161582456Y-100736048D01*
X161582100Y-100779107D01*
X161582092Y-100848859D01*
X161578903Y-100892663D01*
X161567788Y-100913556D01*
X161544001Y-100914575D01*
X161502796Y-100898759D01*
X161440586Y-100869685D01*
X161394841Y-100845537D01*
X161371313Y-100824587D01*
X161364396Y-100801753D01*
X161364386Y-100800623D01*
X161375799Y-100761288D01*
X161409592Y-100740038D01*
X161461309Y-100736961D01*
X161498561Y-100737494D01*
X161518203Y-100726765D01*
X161530452Y-100700995D01*
X161537502Y-100668163D01*
X161527342Y-100649534D01*
X161523517Y-100646868D01*
X161487501Y-100636160D01*
X161437066Y-100634644D01*
X161385126Y-100641741D01*
X161348322Y-100654712D01*
X161297438Y-100697915D01*
X161268514Y-100758054D01*
X161262786Y-100805038D01*
X161267157Y-100847418D01*
X161282975Y-100882012D01*
X161314297Y-100912737D01*
X161365178Y-100943510D01*
X161439676Y-100978248D01*
X161444214Y-100980212D01*
X161511321Y-101011213D01*
X161552732Y-101036638D01*
X161570481Y-101059486D01*
X161566607Y-101082755D01*
X161543143Y-101109444D01*
X161536127Y-101115586D01*
X161489130Y-101139400D01*
X161440433Y-101138397D01*
X161398022Y-101115049D01*
X161369884Y-101071825D01*
X161367269Y-101063340D01*
X161341808Y-101022192D01*
X161309501Y-101002372D01*
X161262786Y-100982730D01*
X161262786Y-101033550D01*
X161276996Y-101107418D01*
X161319175Y-101175173D01*
X161341124Y-101197839D01*
X161391017Y-101226931D01*
X161454467Y-101240100D01*
X161520244Y-101236532D01*
G37*
X161520244Y-101236532D02*
X161577116Y-101215413D01*
X161577767Y-101215007D01*
X161612940Y-101189120D01*
X161638907Y-101158867D01*
X161657170Y-101119442D01*
X161669232Y-101066038D01*
X161676596Y-100993849D01*
X161680764Y-100898068D01*
X161681129Y-100884422D01*
X161686376Y-100678658D01*
X161642216Y-100655822D01*
X161610263Y-100640390D01*
X161590970Y-100633077D01*
X161590078Y-100632986D01*
X161586739Y-100646478D01*
X161584087Y-100682874D01*
X161582456Y-100736048D01*
X161582100Y-100779107D01*
X161582092Y-100848859D01*
X161578903Y-100892663D01*
X161567788Y-100913556D01*
X161544001Y-100914575D01*
X161502796Y-100898759D01*
X161440586Y-100869685D01*
X161394841Y-100845537D01*
X161371313Y-100824587D01*
X161364396Y-100801753D01*
X161364386Y-100800623D01*
X161375799Y-100761288D01*
X161409592Y-100740038D01*
X161461309Y-100736961D01*
X161498561Y-100737494D01*
X161518203Y-100726765D01*
X161530452Y-100700995D01*
X161537502Y-100668163D01*
X161527342Y-100649534D01*
X161523517Y-100646868D01*
X161487501Y-100636160D01*
X161437066Y-100634644D01*
X161385126Y-100641741D01*
X161348322Y-100654712D01*
X161297438Y-100697915D01*
X161268514Y-100758054D01*
X161262786Y-100805038D01*
X161267157Y-100847418D01*
X161282975Y-100882012D01*
X161314297Y-100912737D01*
X161365178Y-100943510D01*
X161439676Y-100978248D01*
X161444214Y-100980212D01*
X161511321Y-101011213D01*
X161552732Y-101036638D01*
X161570481Y-101059486D01*
X161566607Y-101082755D01*
X161543143Y-101109444D01*
X161536127Y-101115586D01*
X161489130Y-101139400D01*
X161440433Y-101138397D01*
X161398022Y-101115049D01*
X161369884Y-101071825D01*
X161367269Y-101063340D01*
X161341808Y-101022192D01*
X161309501Y-101002372D01*
X161262786Y-100982730D01*
X161262786Y-101033550D01*
X161276996Y-101107418D01*
X161319175Y-101175173D01*
X161341124Y-101197839D01*
X161391017Y-101226931D01*
X161454467Y-101240100D01*
X161520244Y-101236532D01*
G36*
X160856386Y-101336211D02*
G01*
X160860639Y-101276887D01*
X160865525Y-101241928D01*
X160872295Y-101226680D01*
X160882202Y-101226485D01*
X160885414Y-101228305D01*
X160928144Y-101241485D01*
X160983727Y-101240715D01*
X161040237Y-101227167D01*
X161075582Y-101209639D01*
X161111821Y-101181639D01*
X161138313Y-101149951D01*
X161156499Y-101109687D01*
X161167822Y-101055957D01*
X161173722Y-100983874D01*
X161175643Y-100888549D01*
X161175677Y-100870263D01*
X161175700Y-100664854D01*
X161129991Y-100648920D01*
X161097527Y-100638080D01*
X161079715Y-100633032D01*
X161079191Y-100632986D01*
X161077437Y-100646672D01*
X161075944Y-100684424D01*
X161074826Y-100741276D01*
X161074197Y-100812266D01*
X161074100Y-100855427D01*
X161073898Y-100940527D01*
X161072858Y-101001519D01*
X161070331Y-101043323D01*
X161065664Y-101070858D01*
X161058207Y-101089044D01*
X161047311Y-101102802D01*
X161040507Y-101109427D01*
X160993772Y-101136125D01*
X160942772Y-101138125D01*
X160896501Y-101115545D01*
X160887944Y-101107393D01*
X160875393Y-101092064D01*
X160866688Y-101073882D01*
X160861131Y-101047591D01*
X160858026Y-101007938D01*
X160856676Y-100949668D01*
X160856386Y-100869327D01*
X160856386Y-100664854D01*
X160810677Y-100648920D01*
X160778213Y-100638080D01*
X160760401Y-100633032D01*
X160759877Y-100632986D01*
X160758537Y-100646877D01*
X160757328Y-100686061D01*
X160756301Y-100746800D01*
X160755502Y-100825359D01*
X160754981Y-100918002D01*
X160754786Y-101020991D01*
X160754786Y-101418158D01*
X160801957Y-101438056D01*
X160849129Y-101457953D01*
X160856386Y-101336211D01*
G37*
X160856386Y-101336211D02*
X160860639Y-101276887D01*
X160865525Y-101241928D01*
X160872295Y-101226680D01*
X160882202Y-101226485D01*
X160885414Y-101228305D01*
X160928144Y-101241485D01*
X160983727Y-101240715D01*
X161040237Y-101227167D01*
X161075582Y-101209639D01*
X161111821Y-101181639D01*
X161138313Y-101149951D01*
X161156499Y-101109687D01*
X161167822Y-101055957D01*
X161173722Y-100983874D01*
X161175643Y-100888549D01*
X161175677Y-100870263D01*
X161175700Y-100664854D01*
X161129991Y-100648920D01*
X161097527Y-100638080D01*
X161079715Y-100633032D01*
X161079191Y-100632986D01*
X161077437Y-100646672D01*
X161075944Y-100684424D01*
X161074826Y-100741276D01*
X161074197Y-100812266D01*
X161074100Y-100855427D01*
X161073898Y-100940527D01*
X161072858Y-101001519D01*
X161070331Y-101043323D01*
X161065664Y-101070858D01*
X161058207Y-101089044D01*
X161047311Y-101102802D01*
X161040507Y-101109427D01*
X160993772Y-101136125D01*
X160942772Y-101138125D01*
X160896501Y-101115545D01*
X160887944Y-101107393D01*
X160875393Y-101092064D01*
X160866688Y-101073882D01*
X160861131Y-101047591D01*
X160858026Y-101007938D01*
X160856676Y-100949668D01*
X160856386Y-100869327D01*
X160856386Y-100664854D01*
X160810677Y-100648920D01*
X160778213Y-100638080D01*
X160760401Y-100633032D01*
X160759877Y-100632986D01*
X160758537Y-100646877D01*
X160757328Y-100686061D01*
X160756301Y-100746800D01*
X160755502Y-100825359D01*
X160754981Y-100918002D01*
X160754786Y-101020991D01*
X160754786Y-101418158D01*
X160801957Y-101438056D01*
X160849129Y-101457953D01*
X160856386Y-101336211D01*
G36*
X159648803Y-101256261D02*
G01*
X159706027Y-101217765D01*
X159750249Y-101162165D01*
X159776667Y-101091414D01*
X159782010Y-101039338D01*
X159781403Y-101017607D01*
X159776322Y-101000969D01*
X159762355Y-100986063D01*
X159735089Y-100969527D01*
X159690112Y-100948002D01*
X159623011Y-100918126D01*
X159622671Y-100917976D01*
X159560907Y-100889687D01*
X159510259Y-100864567D01*
X159475904Y-100845321D01*
X159463018Y-100834652D01*
X159463014Y-100834566D01*
X159474372Y-100811334D01*
X159500931Y-100785726D01*
X159531423Y-100767279D01*
X159546870Y-100763614D01*
X159589015Y-100776288D01*
X159625308Y-100808029D01*
X159643017Y-100842928D01*
X159660052Y-100868655D01*
X159693422Y-100897954D01*
X159732649Y-100923265D01*
X159767256Y-100937029D01*
X159774493Y-100937786D01*
X159782639Y-100925340D01*
X159783130Y-100893528D01*
X159777143Y-100850634D01*
X159765857Y-100804942D01*
X159750450Y-100764739D01*
X159749671Y-100763178D01*
X159703304Y-100698438D01*
X159643211Y-100654403D01*
X159574965Y-100632789D01*
X159504138Y-100635315D01*
X159436304Y-100663696D01*
X159433288Y-100665692D01*
X159379927Y-100714052D01*
X159344840Y-100777148D01*
X159325422Y-100860113D01*
X159322816Y-100883422D01*
X159318201Y-100993445D01*
X159323733Y-101044752D01*
X159463014Y-101044752D01*
X159464824Y-101012747D01*
X159474722Y-101003407D01*
X159499398Y-101010395D01*
X159538295Y-101026913D01*
X159581775Y-101047619D01*
X159582856Y-101048167D01*
X159619709Y-101067551D01*
X159634500Y-101080487D01*
X159630853Y-101094049D01*
X159615495Y-101111868D01*
X159576423Y-101137655D01*
X159534346Y-101139550D01*
X159496603Y-101120783D01*
X159470534Y-101084585D01*
X159463014Y-101044752D01*
X159323733Y-101044752D01*
X159327694Y-101081473D01*
X159352050Y-101151288D01*
X159385956Y-101200198D01*
X159447153Y-101249622D01*
X159514563Y-101274141D01*
X159583380Y-101275703D01*
X159648803Y-101256261D01*
G37*
X159648803Y-101256261D02*
X159706027Y-101217765D01*
X159750249Y-101162165D01*
X159776667Y-101091414D01*
X159782010Y-101039338D01*
X159781403Y-101017607D01*
X159776322Y-101000969D01*
X159762355Y-100986063D01*
X159735089Y-100969527D01*
X159690112Y-100948002D01*
X159623011Y-100918126D01*
X159622671Y-100917976D01*
X159560907Y-100889687D01*
X159510259Y-100864567D01*
X159475904Y-100845321D01*
X159463018Y-100834652D01*
X159463014Y-100834566D01*
X159474372Y-100811334D01*
X159500931Y-100785726D01*
X159531423Y-100767279D01*
X159546870Y-100763614D01*
X159589015Y-100776288D01*
X159625308Y-100808029D01*
X159643017Y-100842928D01*
X159660052Y-100868655D01*
X159693422Y-100897954D01*
X159732649Y-100923265D01*
X159767256Y-100937029D01*
X159774493Y-100937786D01*
X159782639Y-100925340D01*
X159783130Y-100893528D01*
X159777143Y-100850634D01*
X159765857Y-100804942D01*
X159750450Y-100764739D01*
X159749671Y-100763178D01*
X159703304Y-100698438D01*
X159643211Y-100654403D01*
X159574965Y-100632789D01*
X159504138Y-100635315D01*
X159436304Y-100663696D01*
X159433288Y-100665692D01*
X159379927Y-100714052D01*
X159344840Y-100777148D01*
X159325422Y-100860113D01*
X159322816Y-100883422D01*
X159318201Y-100993445D01*
X159323733Y-101044752D01*
X159463014Y-101044752D01*
X159464824Y-101012747D01*
X159474722Y-101003407D01*
X159499398Y-101010395D01*
X159538295Y-101026913D01*
X159581775Y-101047619D01*
X159582856Y-101048167D01*
X159619709Y-101067551D01*
X159634500Y-101080487D01*
X159630853Y-101094049D01*
X159615495Y-101111868D01*
X159576423Y-101137655D01*
X159534346Y-101139550D01*
X159496603Y-101120783D01*
X159470534Y-101084585D01*
X159463014Y-101044752D01*
X159323733Y-101044752D01*
X159327694Y-101081473D01*
X159352050Y-101151288D01*
X159385956Y-101200198D01*
X159447153Y-101249622D01*
X159514563Y-101274141D01*
X159583380Y-101275703D01*
X159648803Y-101256261D01*
G36*
X158521615Y-101265538D02*
G01*
X158589645Y-101229767D01*
X158639851Y-101172199D01*
X158657685Y-101135188D01*
X158671563Y-101079618D01*
X158678667Y-101009404D01*
X158679340Y-100932773D01*
X158673927Y-100857948D01*
X158662770Y-100793158D01*
X158646214Y-100746627D01*
X158641126Y-100738613D01*
X158580855Y-100678793D01*
X158509269Y-100642965D01*
X158431592Y-100632480D01*
X158353048Y-100648690D01*
X158331189Y-100658408D01*
X158288622Y-100688357D01*
X158251263Y-100728067D01*
X158247732Y-100733103D01*
X158233381Y-100757376D01*
X158223894Y-100783322D01*
X158218290Y-100817478D01*
X158215586Y-100866381D01*
X158214799Y-100936565D01*
X158214786Y-100952300D01*
X158214822Y-100957308D01*
X158359929Y-100957308D01*
X158360773Y-100891070D01*
X158364096Y-100847114D01*
X158371083Y-100818721D01*
X158382916Y-100799175D01*
X158388957Y-100792643D01*
X158423686Y-100767820D01*
X158457403Y-100768952D01*
X158491495Y-100790484D01*
X158511829Y-100813471D01*
X158523871Y-100847022D01*
X158530634Y-100899931D01*
X158531098Y-100906101D01*
X158532252Y-101001987D01*
X158520188Y-101073201D01*
X158495070Y-101119306D01*
X158457060Y-101139865D01*
X158443492Y-101140986D01*
X158407864Y-101135348D01*
X158383494Y-101115814D01*
X158368593Y-101078458D01*
X158361375Y-101019350D01*
X158359929Y-100957308D01*
X158214822Y-100957308D01*
X158215326Y-101027087D01*
X158217596Y-101079341D01*
X158222568Y-101115551D01*
X158231213Y-101142201D01*
X158244505Y-101165778D01*
X158247443Y-101170162D01*
X158296813Y-101229251D01*
X158350609Y-101263553D01*
X158416102Y-101277169D01*
X158438342Y-101277835D01*
X158521615Y-101265538D01*
G37*
X158521615Y-101265538D02*
X158589645Y-101229767D01*
X158639851Y-101172199D01*
X158657685Y-101135188D01*
X158671563Y-101079618D01*
X158678667Y-101009404D01*
X158679340Y-100932773D01*
X158673927Y-100857948D01*
X158662770Y-100793158D01*
X158646214Y-100746627D01*
X158641126Y-100738613D01*
X158580855Y-100678793D01*
X158509269Y-100642965D01*
X158431592Y-100632480D01*
X158353048Y-100648690D01*
X158331189Y-100658408D01*
X158288622Y-100688357D01*
X158251263Y-100728067D01*
X158247732Y-100733103D01*
X158233381Y-100757376D01*
X158223894Y-100783322D01*
X158218290Y-100817478D01*
X158215586Y-100866381D01*
X158214799Y-100936565D01*
X158214786Y-100952300D01*
X158214822Y-100957308D01*
X158359929Y-100957308D01*
X158360773Y-100891070D01*
X158364096Y-100847114D01*
X158371083Y-100818721D01*
X158382916Y-100799175D01*
X158388957Y-100792643D01*
X158423686Y-100767820D01*
X158457403Y-100768952D01*
X158491495Y-100790484D01*
X158511829Y-100813471D01*
X158523871Y-100847022D01*
X158530634Y-100899931D01*
X158531098Y-100906101D01*
X158532252Y-101001987D01*
X158520188Y-101073201D01*
X158495070Y-101119306D01*
X158457060Y-101139865D01*
X158443492Y-101140986D01*
X158407864Y-101135348D01*
X158383494Y-101115814D01*
X158368593Y-101078458D01*
X158361375Y-101019350D01*
X158359929Y-100957308D01*
X158214822Y-100957308D01*
X158215326Y-101027087D01*
X158217596Y-101079341D01*
X158222568Y-101115551D01*
X158231213Y-101142201D01*
X158244505Y-101165778D01*
X158247443Y-101170162D01*
X158296813Y-101229251D01*
X158350609Y-101263553D01*
X158416102Y-101277169D01*
X158438342Y-101277835D01*
X158521615Y-101265538D01*
G36*
X160196593Y-101259720D02*
G01*
X160243172Y-101232777D01*
X160275557Y-101206034D01*
X160299242Y-101178016D01*
X160315559Y-101143752D01*
X160325839Y-101098273D01*
X160331414Y-101036608D01*
X160333616Y-100953789D01*
X160333871Y-100894254D01*
X160333871Y-100675109D01*
X160272186Y-100647456D01*
X160210500Y-100619803D01*
X160203243Y-100859830D01*
X160200244Y-100949472D01*
X160197098Y-101014538D01*
X160193201Y-101059474D01*
X160187947Y-101088730D01*
X160180731Y-101106752D01*
X160170950Y-101117989D01*
X160167812Y-101120421D01*
X160120261Y-101139417D01*
X160072197Y-101131900D01*
X160043586Y-101111957D01*
X160031947Y-101097825D01*
X160023891Y-101079280D01*
X160018771Y-101051166D01*
X160015941Y-101008327D01*
X160014756Y-100945605D01*
X160014557Y-100880239D01*
X160014518Y-100798232D01*
X160013114Y-100740184D01*
X160008414Y-100701035D01*
X159998487Y-100675720D01*
X159981403Y-100659177D01*
X159955232Y-100646344D01*
X159920275Y-100633009D01*
X159882096Y-100618493D01*
X159886641Y-100876111D01*
X159888471Y-100968981D01*
X159890612Y-101037611D01*
X159893681Y-101086789D01*
X159898294Y-101121302D01*
X159905068Y-101145938D01*
X159914619Y-101165484D01*
X159926134Y-101182730D01*
X159981690Y-101237820D01*
X160049480Y-101269678D01*
X160123213Y-101277309D01*
X160196593Y-101259720D01*
G37*
X160196593Y-101259720D02*
X160243172Y-101232777D01*
X160275557Y-101206034D01*
X160299242Y-101178016D01*
X160315559Y-101143752D01*
X160325839Y-101098273D01*
X160331414Y-101036608D01*
X160333616Y-100953789D01*
X160333871Y-100894254D01*
X160333871Y-100675109D01*
X160272186Y-100647456D01*
X160210500Y-100619803D01*
X160203243Y-100859830D01*
X160200244Y-100949472D01*
X160197098Y-101014538D01*
X160193201Y-101059474D01*
X160187947Y-101088730D01*
X160180731Y-101106752D01*
X160170950Y-101117989D01*
X160167812Y-101120421D01*
X160120261Y-101139417D01*
X160072197Y-101131900D01*
X160043586Y-101111957D01*
X160031947Y-101097825D01*
X160023891Y-101079280D01*
X160018771Y-101051166D01*
X160015941Y-101008327D01*
X160014756Y-100945605D01*
X160014557Y-100880239D01*
X160014518Y-100798232D01*
X160013114Y-100740184D01*
X160008414Y-100701035D01*
X159998487Y-100675720D01*
X159981403Y-100659177D01*
X159955232Y-100646344D01*
X159920275Y-100633009D01*
X159882096Y-100618493D01*
X159886641Y-100876111D01*
X159888471Y-100968981D01*
X159890612Y-101037611D01*
X159893681Y-101086789D01*
X159898294Y-101121302D01*
X159905068Y-101145938D01*
X159914619Y-101165484D01*
X159926134Y-101182730D01*
X159981690Y-101237820D01*
X160049480Y-101269678D01*
X160123213Y-101277309D01*
X160196593Y-101259720D01*
G36*
X159080244Y-101267582D02*
G01*
X159135701Y-101239932D01*
X159184648Y-101189020D01*
X159198129Y-101170162D01*
X159212814Y-101145485D01*
X159222342Y-101118684D01*
X159227793Y-101082913D01*
X159230247Y-101031331D01*
X159230786Y-100963233D01*
X159228352Y-100869912D01*
X159219894Y-100799843D01*
X159203674Y-100747569D01*
X159177954Y-100707631D01*
X159140997Y-100674571D01*
X159138282Y-100672614D01*
X159101860Y-100652592D01*
X159058002Y-100642685D01*
X159002224Y-100640243D01*
X158911548Y-100640243D01*
X158911510Y-100552217D01*
X158910666Y-100503192D01*
X158905524Y-100474435D01*
X158892087Y-100457189D01*
X158866358Y-100442692D01*
X158860179Y-100439731D01*
X158831264Y-100425852D01*
X158808876Y-100417086D01*
X158792229Y-100416329D01*
X158780536Y-100426477D01*
X158773010Y-100450427D01*
X158768866Y-100491074D01*
X158767315Y-100551314D01*
X158767571Y-100634045D01*
X158768849Y-100742161D01*
X158769248Y-100774500D01*
X158770685Y-100885976D01*
X158771972Y-100958897D01*
X158911471Y-100958897D01*
X158912255Y-100897001D01*
X158915740Y-100856503D01*
X158923624Y-100829792D01*
X158937605Y-100809256D01*
X158947097Y-100799240D01*
X158985904Y-100769933D01*
X159020263Y-100767548D01*
X159055716Y-100791750D01*
X159056614Y-100792643D01*
X159071039Y-100811347D01*
X159079813Y-100836768D01*
X159084239Y-100875916D01*
X159085618Y-100935803D01*
X159085643Y-100949070D01*
X159082312Y-101031599D01*
X159071469Y-101088809D01*
X159051840Y-101123734D01*
X159022150Y-101139406D01*
X159004991Y-101140986D01*
X158964266Y-101133574D01*
X158936332Y-101109170D01*
X158919517Y-101064520D01*
X158912150Y-100996370D01*
X158911471Y-100958897D01*
X158771972Y-100958897D01*
X158772208Y-100972255D01*
X158774177Y-101037167D01*
X158776950Y-101084542D01*
X158780888Y-101118210D01*
X158786349Y-101142002D01*
X158793692Y-101159747D01*
X158803277Y-101175276D01*
X158807387Y-101181119D01*
X158861905Y-101236315D01*
X158930836Y-101267610D01*
X159010572Y-101276335D01*
X159080244Y-101267582D01*
G37*
X159080244Y-101267582D02*
X159135701Y-101239932D01*
X159184648Y-101189020D01*
X159198129Y-101170162D01*
X159212814Y-101145485D01*
X159222342Y-101118684D01*
X159227793Y-101082913D01*
X159230247Y-101031331D01*
X159230786Y-100963233D01*
X159228352Y-100869912D01*
X159219894Y-100799843D01*
X159203674Y-100747569D01*
X159177954Y-100707631D01*
X159140997Y-100674571D01*
X159138282Y-100672614D01*
X159101860Y-100652592D01*
X159058002Y-100642685D01*
X159002224Y-100640243D01*
X158911548Y-100640243D01*
X158911510Y-100552217D01*
X158910666Y-100503192D01*
X158905524Y-100474435D01*
X158892087Y-100457189D01*
X158866358Y-100442692D01*
X158860179Y-100439731D01*
X158831264Y-100425852D01*
X158808876Y-100417086D01*
X158792229Y-100416329D01*
X158780536Y-100426477D01*
X158773010Y-100450427D01*
X158768866Y-100491074D01*
X158767315Y-100551314D01*
X158767571Y-100634045D01*
X158768849Y-100742161D01*
X158769248Y-100774500D01*
X158770685Y-100885976D01*
X158771972Y-100958897D01*
X158911471Y-100958897D01*
X158912255Y-100897001D01*
X158915740Y-100856503D01*
X158923624Y-100829792D01*
X158937605Y-100809256D01*
X158947097Y-100799240D01*
X158985904Y-100769933D01*
X159020263Y-100767548D01*
X159055716Y-100791750D01*
X159056614Y-100792643D01*
X159071039Y-100811347D01*
X159079813Y-100836768D01*
X159084239Y-100875916D01*
X159085618Y-100935803D01*
X159085643Y-100949070D01*
X159082312Y-101031599D01*
X159071469Y-101088809D01*
X159051840Y-101123734D01*
X159022150Y-101139406D01*
X159004991Y-101140986D01*
X158964266Y-101133574D01*
X158936332Y-101109170D01*
X158919517Y-101064520D01*
X158912150Y-100996370D01*
X158911471Y-100958897D01*
X158771972Y-100958897D01*
X158772208Y-100972255D01*
X158774177Y-101037167D01*
X158776950Y-101084542D01*
X158780888Y-101118210D01*
X158786349Y-101142002D01*
X158793692Y-101159747D01*
X158803277Y-101175276D01*
X158807387Y-101181119D01*
X158861905Y-101236315D01*
X158930836Y-101267610D01*
X159010572Y-101276335D01*
X159080244Y-101267582D01*
D12*
%TO.C,J1*%
X158175000Y-101557000D02*
X150435000Y-101557000D01*
X150435000Y-101557000D02*
X150435000Y-98897000D01*
X150435000Y-98897000D02*
X158175000Y-98897000D01*
X158175000Y-98897000D02*
X158175000Y-101557000D01*
X157225000Y-98897000D02*
X157225000Y-92897000D01*
X157225000Y-92897000D02*
X156465000Y-92897000D01*
X156465000Y-92897000D02*
X156465000Y-98897000D01*
X157165000Y-98897000D02*
X157165000Y-92897000D01*
X157045000Y-98897000D02*
X157045000Y-92897000D01*
X156925000Y-98897000D02*
X156925000Y-92897000D01*
X156805000Y-98897000D02*
X156805000Y-92897000D01*
X156685000Y-98897000D02*
X156685000Y-92897000D01*
X156565000Y-98897000D02*
X156565000Y-92897000D01*
X157225000Y-101887000D02*
X157225000Y-101557000D01*
X156465000Y-101887000D02*
X156465000Y-101557000D01*
X155575000Y-101557000D02*
X155575000Y-98897000D01*
X154685000Y-98897000D02*
X154685000Y-92897000D01*
X154685000Y-92897000D02*
X153925000Y-92897000D01*
X153925000Y-92897000D02*
X153925000Y-98897000D01*
X154685000Y-101954071D02*
X154685000Y-101557000D01*
X153925000Y-101954071D02*
X153925000Y-101557000D01*
X153035000Y-101557000D02*
X153035000Y-98897000D01*
X152145000Y-98897000D02*
X152145000Y-92897000D01*
X152145000Y-92897000D02*
X151385000Y-92897000D01*
X151385000Y-92897000D02*
X151385000Y-98897000D01*
X152145000Y-101954071D02*
X152145000Y-101557000D01*
X151385000Y-101954071D02*
X151385000Y-101557000D01*
X156845000Y-104267000D02*
X158115000Y-104267000D01*
X158115000Y-104267000D02*
X158115000Y-102997000D01*
%TD*%
M02*
