M48
; DRILL file {KiCad 5.1.9-73d0e3b20d~88~ubuntu20.04.1} date Tue Apr  6 18:29:44 2021
; FORMAT={-:-/ absolute / inch / decimal}
; #@! TF.CreationDate,2021-04-06T18:29:44+02:00
; #@! TF.GenerationSoftware,Kicad,Pcbnew,5.1.9-73d0e3b20d~88~ubuntu20.04.1
; #@! TF.FileFunction,Plated,1,2,PTH
FMAT,2
INCH
T1C0.0118
T2C0.0394
%
G90
G05
T1
X6.26Y-4.025
X6.26Y-4.075
X6.3136Y-4.2437
X6.3205Y-4.3322
X6.325Y-4.075
X6.3271Y-4.4041
X6.3497Y-4.3173
X6.365Y-4.135
X6.3748Y-4.2067
X6.4833Y-3.9934
X6.5188Y-3.9872
X6.565Y-3.954
X6.625Y-3.9691
X6.74Y-3.9395
X6.8675Y-3.9494
X6.935Y-3.9691
X7.06Y-3.9395
X7.2675Y-3.95
X7.365Y-3.9691
X7.4334Y-3.9376
X7.5715Y-4.0056
X7.6425Y-4.01
X7.6559Y-4.1016
X7.6875Y-4.2451
X7.7126Y-4.225
X7.7361Y-4.398
X7.7552Y-4.2168
X7.7562Y-4.314
T2
X5.975Y-4.055
X6.075Y-4.055
X6.175Y-4.055
T0
M30
