%TF.GenerationSoftware,KiCad,Pcbnew,5.1.9-73d0e3b20d~88~ubuntu20.04.1*%
%TF.CreationDate,2021-04-06T18:29:42+02:00*%
%TF.ProjectId,AB_LED_PCB,41425f4c-4544-45f5-9043-422e6b696361,rev?*%
%TF.SameCoordinates,Original*%
%TF.FileFunction,Legend,Top*%
%TF.FilePolarity,Positive*%
%FSLAX46Y46*%
G04 Gerber Fmt 4.6, Leading zero omitted, Abs format (unit mm)*
G04 Created by KiCad (PCBNEW 5.1.9-73d0e3b20d~88~ubuntu20.04.1) date 2021-04-06 18:29:42*
%MOMM*%
%LPD*%
G01*
G04 APERTURE LIST*
%ADD10C,0.150000*%
%ADD11C,0.500000*%
%ADD12C,0.120000*%
G04 APERTURE END LIST*
D10*
X151265000Y-101345904D02*
X151217380Y-101441142D01*
X151217380Y-101584000D01*
X151265000Y-101726857D01*
X151360238Y-101822095D01*
X151455476Y-101869714D01*
X151645952Y-101917333D01*
X151788809Y-101917333D01*
X151979285Y-101869714D01*
X152074523Y-101822095D01*
X152169761Y-101726857D01*
X152217380Y-101584000D01*
X152217380Y-101488761D01*
X152169761Y-101345904D01*
X152122142Y-101298285D01*
X151788809Y-101298285D01*
X151788809Y-101488761D01*
X152217380Y-100869714D02*
X151217380Y-100869714D01*
X152217380Y-100298285D01*
X151217380Y-100298285D01*
X152217380Y-99822095D02*
X151217380Y-99822095D01*
X151217380Y-99584000D01*
X151265000Y-99441142D01*
X151360238Y-99345904D01*
X151455476Y-99298285D01*
X151645952Y-99250666D01*
X151788809Y-99250666D01*
X151979285Y-99298285D01*
X152074523Y-99345904D01*
X152169761Y-99441142D01*
X152217380Y-99584000D01*
X152217380Y-99822095D01*
X154757380Y-101607809D02*
X153757380Y-101607809D01*
X153757380Y-101369714D01*
X153805000Y-101226857D01*
X153900238Y-101131619D01*
X153995476Y-101084000D01*
X154185952Y-101036380D01*
X154328809Y-101036380D01*
X154519285Y-101084000D01*
X154614523Y-101131619D01*
X154709761Y-101226857D01*
X154757380Y-101369714D01*
X154757380Y-101607809D01*
X154757380Y-100607809D02*
X153757380Y-100607809D01*
X154757380Y-100131619D02*
X153757380Y-100131619D01*
X154757380Y-99560190D01*
X153757380Y-99560190D01*
X156297380Y-101028476D02*
X156297380Y-101504666D01*
X156773571Y-101552285D01*
X156725952Y-101504666D01*
X156678333Y-101409428D01*
X156678333Y-101171333D01*
X156725952Y-101076095D01*
X156773571Y-101028476D01*
X156868809Y-100980857D01*
X157106904Y-100980857D01*
X157202142Y-101028476D01*
X157249761Y-101076095D01*
X157297380Y-101171333D01*
X157297380Y-101409428D01*
X157249761Y-101504666D01*
X157202142Y-101552285D01*
X156297380Y-100695142D02*
X157297380Y-100361809D01*
X156297380Y-100028476D01*
D11*
%TO.C,D7*%
X169872000Y-99857000D02*
X169872000Y-101057000D01*
D12*
X170872000Y-99457000D02*
X168472000Y-99457000D01*
X170872000Y-101457000D02*
X168472000Y-101457000D01*
%TO.C,C7*%
X167366836Y-101325000D02*
X167151164Y-101325000D01*
X167366836Y-100605000D02*
X167151164Y-100605000D01*
D11*
%TO.C,D6*%
X160855000Y-108620000D02*
X160855000Y-109820000D01*
D12*
X161855000Y-108220000D02*
X159455000Y-108220000D01*
X161855000Y-110220000D02*
X159455000Y-110220000D01*
D11*
%TO.C,D5*%
X161217000Y-107153000D02*
X161217000Y-105953000D01*
D12*
X160217000Y-107553000D02*
X162617000Y-107553000D01*
X160217000Y-105553000D02*
X162617000Y-105553000D01*
%TO.C,C6*%
X161778836Y-103865000D02*
X161563164Y-103865000D01*
X161778836Y-103145000D02*
X161563164Y-103145000D01*
%TO.C,C5*%
X160420164Y-110638000D02*
X160635836Y-110638000D01*
X160420164Y-111358000D02*
X160635836Y-111358000D01*
D11*
%TO.C,D4*%
X196396000Y-109820000D02*
X196396000Y-108620000D01*
D12*
X195396000Y-110220000D02*
X197796000Y-110220000D01*
X195396000Y-108220000D02*
X197796000Y-108220000D01*
D11*
%TO.C,D3*%
X195634000Y-107407000D02*
X195634000Y-106207000D01*
D12*
X194634000Y-107807000D02*
X197034000Y-107807000D01*
X194634000Y-105807000D02*
X197034000Y-105807000D01*
D11*
%TO.C,D2*%
X187779000Y-99857000D02*
X187779000Y-101057000D01*
D12*
X188779000Y-99457000D02*
X186379000Y-99457000D01*
X188779000Y-101457000D02*
X186379000Y-101457000D01*
D11*
%TO.C,D1*%
X177873000Y-99857000D02*
X177873000Y-101057000D01*
D12*
X178873000Y-99457000D02*
X176473000Y-99457000D01*
X178873000Y-101457000D02*
X176473000Y-101457000D01*
%TO.C,C4*%
X194606500Y-103016164D02*
X194606500Y-103231836D01*
X193886500Y-103016164D02*
X193886500Y-103231836D01*
%TO.C,C3*%
X196703836Y-111231000D02*
X196488164Y-111231000D01*
X196703836Y-110511000D02*
X196488164Y-110511000D01*
%TO.C,C2*%
X175240836Y-101325000D02*
X175025164Y-101325000D01*
X175240836Y-100605000D02*
X175025164Y-100605000D01*
%TO.C,C1*%
X185273836Y-101325000D02*
X185058164Y-101325000D01*
X185273836Y-100605000D02*
X185058164Y-100605000D01*
%TD*%
M02*
